<svg width="36" height="168" viewBox="0 0 36 168" fill="none" xmlns="http://www.w3.org/2000/svg">
<rect x="0.5" y="0.5" width="35" height="35" rx="7.5" fill="white"/>
<rect x="0.5" y="0.5" width="35" height="35" rx="7.5" stroke="#E7E7E7"/>
<path d="M21.6998 11.0833C23.9796 11.0833 25.8335 12.9404 25.8336 15.2415C25.8336 16.1788 25.684 17.0437 25.4244 17.846L25.4235 17.8489C24.801 19.8189 23.5242 21.4101 22.1422 22.598C20.7579 23.7877 19.2957 24.5484 18.3551 24.8685L18.3502 24.8704C18.2787 24.8956 18.1513 24.9163 17.9996 24.9163C17.8483 24.9163 17.7216 24.8956 17.65 24.8704L17.6442 24.8685L17.2682 24.7278C16.3394 24.3516 15.0693 23.6389 13.858 22.598C12.4759 21.4101 11.1993 19.819 10.5768 17.8489L10.5758 17.846L10.484 17.5423C10.2815 16.8264 10.1666 16.0617 10.1666 15.2415C10.1667 12.9404 12.0206 11.0833 14.3004 11.0833C15.6437 11.0835 16.8476 11.7368 17.5992 12.7415L17.9996 13.2767L18.4 12.7415C19.1517 11.7368 20.3565 11.0834 21.6998 11.0833Z" stroke="#5D5D5D"/>
<rect x="0.5" y="44.5" width="35" height="35" rx="7.5" fill="white"/>
<rect x="0.5" y="44.5" width="35" height="35" rx="7.5" stroke="#E7E7E7"/>
<path d="M9.70837 53.7083H11.375L13.5917 64.0583C13.673 64.4374 13.8839 64.7762 14.1881 65.0165C14.4923 65.2568 14.8708 65.3836 15.2584 65.375H23.4084C23.7877 65.3744 24.1554 65.2444 24.4509 65.0065C24.7463 64.7686 24.9518 64.4371 25.0334 64.0666L26.4084 57.875H12.2667M15.5 69.5C15.5 69.9602 15.1269 70.3333 14.6667 70.3333C14.2065 70.3333 13.8334 69.9602 13.8334 69.5C13.8334 69.0397 14.2065 68.6666 14.6667 68.6666C15.1269 68.6666 15.5 69.0397 15.5 69.5ZM24.6667 69.5C24.6667 69.9602 24.2936 70.3333 23.8334 70.3333C23.3731 70.3333 23 69.9602 23 69.5C23 69.0397 23.3731 68.6666 23.8334 68.6666C24.2936 68.6666 24.6667 69.0397 24.6667 69.5Z" stroke="#5D5D5D" stroke-linecap="round" stroke-linejoin="round"/>
<rect x="0.5" y="88.5" width="35" height="35" rx="7.5" fill="white"/>
<rect x="0.5" y="88.5" width="35" height="35" rx="7.5" stroke="#E7E7E7"/>
<path d="M16.3333 108.5C16.3333 110.341 14.8409 111.833 13 111.833C11.159 111.833 9.66663 110.341 9.66663 108.5C9.66663 106.659 11.159 105.167 13 105.167C14.8409 105.167 16.3333 106.659 16.3333 108.5ZM16.3333 108.5C16.3333 108.058 16.5089 107.634 16.8214 107.322C17.134 107.009 17.5579 106.833 18 106.833C18.442 106.833 18.8659 107.009 19.1785 107.322C19.491 107.634 19.6666 108.058 19.6666 108.5M19.6666 108.5C19.6666 110.341 21.159 111.833 23 111.833C24.8409 111.833 26.3333 110.341 26.3333 108.5C26.3333 106.659 24.8409 105.167 23 105.167C21.159 105.167 19.6666 106.659 19.6666 108.5ZM10.0833 106.833L12.1666 101.833C12.75 100.75 13.3333 100.167 14.6666 100.167M25.9166 106.833L23.8333 101.833C23.25 100.75 22.5833 100.167 21.3333 100.167" stroke="#5D5D5D" stroke-linecap="round" stroke-linejoin="round"/>
<rect x="0.5" y="132.5" width="35" height="35" rx="7.5" fill="white"/>
<rect x="0.5" y="132.5" width="35" height="35" rx="7.5" stroke="#E7E7E7"/>
<path d="M14.8871 151.378L21.122 155.012M21.1129 144.988L14.8871 148.622M26.2159 143.61C26.2159 145.122 24.9897 146.349 23.4772 146.349C21.9647 146.349 20.7386 145.122 20.7386 143.61C20.7386 142.097 21.9647 140.871 23.4772 140.871C24.9897 140.871 26.2159 142.097 26.2159 143.61ZM15.2614 150C15.2614 151.512 14.0353 152.739 12.5228 152.739C11.0103 152.739 9.78418 151.512 9.78418 150C9.78418 148.487 11.0103 147.261 12.5228 147.261C14.0353 147.261 15.2614 148.487 15.2614 150ZM26.2159 156.39C26.2159 157.903 24.9897 159.129 23.4772 159.129C21.9647 159.129 20.7386 157.903 20.7386 156.39C20.7386 154.878 21.9647 153.651 23.4772 153.651C24.9897 153.651 26.2159 154.878 26.2159 156.39Z" stroke="#5D5D5D" stroke-linecap="round" stroke-linejoin="round"/>
</svg>
