<svg width="20" height="20" viewBox="0 0 20 20" fill="none" xmlns="http://www.w3.org/2000/svg">
<path d="M2.5 5.83333V4.16667C2.5 3.72464 2.67559 3.30072 2.98816 2.98816C3.30072 2.67559 3.72464 2.5 4.16667 2.5H5.83333M14.1667 2.5H15.8333C16.2754 2.5 16.6993 2.67559 17.0118 2.98816C17.3244 3.30072 17.5 3.72464 17.5 4.16667V5.83333M17.5 14.1667V15.8333C17.5 16.2754 17.3244 16.6993 17.0118 17.0118C16.6993 17.3244 16.2754 17.5 15.8333 17.5H14.1667M5.83333 17.5H4.16667C3.72464 17.5 3.30072 17.3244 2.98816 17.0118C2.67559 16.6993 2.5 16.2754 2.5 15.8333V14.1667M14.1667 15.1786V13.9881C14.1667 13.3566 13.9158 12.751 13.4693 12.3045C13.0228 11.858 12.4172 11.6071 11.7857 11.6071H8.21429C7.58282 11.6071 6.97721 11.858 6.5307 12.3045C6.08418 12.751 5.83333 13.3566 5.83333 13.9881V15.1786M12.381 6.84524C12.381 8.1602 11.315 9.22619 10 9.22619C8.68504 9.22619 7.61905 8.1602 7.61905 6.84524C7.61905 5.53027 8.68504 4.46429 10 4.46429C11.315 4.46429 12.381 5.53027 12.381 6.84524Z" stroke="#2077BC" stroke-width="0.909091" stroke-linecap="round" stroke-linejoin="round"/>
</svg>
