<svg width="412" height="110" viewBox="0 0 412 110" fill="none" xmlns="http://www.w3.org/2000/svg">
<path d="M16 0.5H20C23.7854 0.5 26.5745 0.500713 28.7119 0.788086C30.8348 1.07354 32.2406 1.63315 33.3037 2.69629C34.3668 3.75943 34.9265 5.16519 35.2119 7.28809C35.4993 9.42554 35.5 12.2146 35.5 16V20C35.5 23.7854 35.4993 26.5745 35.2119 28.7119C34.9265 30.8348 34.3668 32.2406 33.3037 33.3037C32.2406 34.3668 30.8348 34.9265 28.7119 35.2119C26.5745 35.4993 23.7854 35.5 20 35.5H16C12.2146 35.5 9.42554 35.4993 7.28809 35.2119C5.16519 34.9265 3.75943 34.3668 2.69629 33.3037C1.63315 32.2406 1.07354 30.8348 0.788086 28.7119C0.500713 26.5745 0.5 23.7854 0.5 20V16C0.5 12.2146 0.500713 9.42554 0.788086 7.28809C1.07354 5.16519 1.63315 3.75943 2.69629 2.69629C3.75943 1.63315 5.16519 1.07354 7.28809 0.788086C9.42554 0.500713 12.2146 0.5 16 0.5Z" fill="white"/>
<path d="M16 0.5H20C23.7854 0.5 26.5745 0.500713 28.7119 0.788086C30.8348 1.07354 32.2406 1.63315 33.3037 2.69629C34.3668 3.75943 34.9265 5.16519 35.2119 7.28809C35.4993 9.42554 35.5 12.2146 35.5 16V20C35.5 23.7854 35.4993 26.5745 35.2119 28.7119C34.9265 30.8348 34.3668 32.2406 33.3037 33.3037C32.2406 34.3668 30.8348 34.9265 28.7119 35.2119C26.5745 35.4993 23.7854 35.5 20 35.5H16C12.2146 35.5 9.42554 35.4993 7.28809 35.2119C5.16519 34.9265 3.75943 34.3668 2.69629 33.3037C1.63315 32.2406 1.07354 30.8348 0.788086 28.7119C0.500713 26.5745 0.5 23.7854 0.5 20V16C0.5 12.2146 0.500713 9.42554 0.788086 7.28809C1.07354 5.16519 1.63315 3.75943 2.69629 2.69629C3.75943 1.63315 5.16519 1.07354 7.28809 0.788086C9.42554 0.500713 12.2146 0.5 16 0.5Z" stroke="#2077BC"/>
<path d="M18 23.8333L12.1667 18M12.1667 18L18 12.1667M12.1667 18H23.8334" stroke="#2077BC" stroke-linecap="round" stroke-linejoin="round"/>
<path d="M47.232 23.5V13.868H48.254V23.5H47.232ZM53.546 23.5V13.868H54.568V23.5H53.546ZM47.904 18.992V18.054H53.826V18.992H47.904ZM59.7787 23.64C59.1441 23.64 58.5654 23.486 58.0427 23.178C57.5294 22.87 57.1187 22.4547 56.8107 21.932C56.5121 21.4093 56.3627 20.826 56.3627 20.182C56.3627 19.5473 56.5121 18.9733 56.8107 18.46C57.1187 17.9467 57.5294 17.5407 58.0427 17.242C58.5654 16.934 59.1441 16.78 59.7787 16.78C60.4227 16.78 61.0014 16.9293 61.5147 17.228C62.0281 17.5267 62.4341 17.9373 62.7327 18.46C63.0407 18.9733 63.1947 19.5473 63.1947 20.182C63.1947 20.8353 63.0407 21.4233 62.7327 21.946C62.4341 22.4593 62.0281 22.87 61.5147 23.178C61.0014 23.486 60.4227 23.64 59.7787 23.64ZM59.7787 22.688C60.2454 22.688 60.6561 22.5807 61.0107 22.366C61.3747 22.1513 61.6594 21.8527 61.8647 21.47C62.0794 21.0873 62.1867 20.658 62.1867 20.182C62.1867 19.706 62.0794 19.286 61.8647 18.922C61.6594 18.5487 61.3747 18.2547 61.0107 18.04C60.6561 17.8253 60.2454 17.718 59.7787 17.718C59.3214 17.718 58.9107 17.8253 58.5467 18.04C58.1827 18.2547 57.8981 18.5487 57.6927 18.922C57.4874 19.286 57.3847 19.706 57.3847 20.182C57.3847 20.6673 57.4874 21.1013 57.6927 21.484C57.8981 21.8573 58.1827 22.1513 58.5467 22.366C58.9107 22.5807 59.3214 22.688 59.7787 22.688ZM64.7538 23.5V16.92H65.7338V23.5H64.7538ZM69.2758 23.5V19.468C69.2758 18.9267 69.1124 18.4973 68.7858 18.18C68.4591 17.8533 68.0484 17.69 67.5538 17.69C67.2178 17.69 66.9098 17.7647 66.6298 17.914C66.3591 18.054 66.1398 18.2547 65.9718 18.516C65.8131 18.7773 65.7338 19.09 65.7338 19.454L65.2858 19.272C65.2858 18.768 65.3978 18.3293 65.6218 17.956C65.8458 17.5827 66.1444 17.2933 66.5178 17.088C66.9004 16.8827 67.3298 16.78 67.8058 16.78C68.2724 16.78 68.6878 16.8827 69.0518 17.088C69.4251 17.2933 69.7191 17.5827 69.9338 17.956C70.1578 18.3293 70.2698 18.7727 70.2698 19.286V23.5H69.2758ZM73.8118 23.5V19.468C73.8118 18.9267 73.6484 18.4973 73.3218 18.18C72.9951 17.8533 72.5798 17.69 72.0758 17.69C71.7491 17.69 71.4458 17.7647 71.1658 17.914C70.8951 18.054 70.6758 18.2547 70.5078 18.516C70.3491 18.7773 70.2698 19.09 70.2698 19.454L69.6818 19.272C69.7098 18.768 69.8404 18.3293 70.0738 17.956C70.3164 17.5827 70.6291 17.2933 71.0118 17.088C71.4038 16.8827 71.8331 16.78 72.2998 16.78C72.7664 16.78 73.1864 16.8827 73.5598 17.088C73.9424 17.2933 74.2411 17.5827 74.4558 17.956C74.6798 18.3293 74.7918 18.7727 74.7918 19.286V23.5H73.8118ZM79.6726 23.64C79.01 23.64 78.4173 23.4907 77.8946 23.192C77.372 22.8933 76.9566 22.4827 76.6486 21.96C76.35 21.4373 76.2006 20.8493 76.2006 20.196C76.2006 19.552 76.35 18.9733 76.6486 18.46C76.9473 17.9373 77.3533 17.5267 77.8666 17.228C78.38 16.9293 78.954 16.78 79.5886 16.78C80.186 16.78 80.7133 16.9153 81.1706 17.186C81.6373 17.4567 82.0013 17.8347 82.2626 18.32C82.5333 18.796 82.6686 19.3467 82.6686 19.972C82.6686 20.0467 82.664 20.1353 82.6546 20.238C82.6453 20.3313 82.6266 20.4433 82.5986 20.574H76.9006V19.734H82.0666L81.7166 20.042C81.726 19.5567 81.642 19.1413 81.4646 18.796C81.2966 18.4413 81.0493 18.1707 80.7226 17.984C80.4053 17.788 80.018 17.69 79.5606 17.69C79.0846 17.69 78.6693 17.7927 78.3146 17.998C77.96 18.2033 77.68 18.4927 77.4746 18.866C77.2786 19.23 77.1806 19.664 77.1806 20.168C77.1806 20.672 77.2833 21.1153 77.4886 21.498C77.7033 21.8807 77.9973 22.1793 78.3706 22.394C78.7533 22.6087 79.192 22.716 79.6866 22.716C80.088 22.716 80.4566 22.646 80.7926 22.506C81.1286 22.3567 81.4133 22.1373 81.6466 21.848L82.2766 22.492C81.9686 22.856 81.586 23.1407 81.1286 23.346C80.6806 23.542 80.1953 23.64 79.6726 23.64Z" fill="#5D5D5D"/>
<path d="M98 14L102 18L98 22" stroke="#5D5D5D" stroke-linecap="round" stroke-linejoin="round"/>
<path d="M120.746 23.64C120.046 23.64 119.421 23.486 118.87 23.178C118.329 22.8607 117.899 22.4313 117.582 21.89C117.265 21.3393 117.106 20.7233 117.106 20.042V13.868H118.142V19.986C118.142 20.5273 118.254 20.9987 118.478 21.4C118.702 21.8013 119.01 22.1093 119.402 22.324C119.803 22.5387 120.251 22.646 120.746 22.646C121.241 22.646 121.679 22.5387 122.062 22.324C122.454 22.1093 122.762 21.806 122.986 21.414C123.219 21.0127 123.336 20.5413 123.336 20V13.868H124.358V20.056C124.358 20.7373 124.199 21.3487 123.882 21.89C123.574 22.4313 123.145 22.8607 122.594 23.178C122.053 23.486 121.437 23.64 120.746 23.64ZM131.243 23.5V19.636C131.243 19.0573 131.07 18.5907 130.725 18.236C130.389 17.872 129.941 17.69 129.381 17.69C128.998 17.69 128.662 17.774 128.373 17.942C128.084 18.11 127.855 18.3387 127.687 18.628C127.519 18.9173 127.435 19.2487 127.435 19.622L126.987 19.37C126.987 18.8753 127.104 18.432 127.337 18.04C127.57 17.648 127.883 17.34 128.275 17.116C128.676 16.892 129.134 16.78 129.647 16.78C130.151 16.78 130.599 16.9013 130.991 17.144C131.383 17.3867 131.686 17.7133 131.901 18.124C132.125 18.5347 132.237 18.9827 132.237 19.468V23.5H131.243ZM126.455 23.5V16.92H127.435V23.5H126.455ZM134.07 23.5V16.92H135.064V23.5H134.07ZM134.56 15.492C134.374 15.492 134.215 15.4267 134.084 15.296C133.954 15.156 133.888 14.9927 133.888 14.806C133.888 14.61 133.954 14.4467 134.084 14.316C134.215 14.1853 134.374 14.12 134.56 14.12C134.766 14.12 134.929 14.1853 135.05 14.316C135.181 14.4467 135.246 14.61 135.246 14.806C135.246 14.9927 135.181 15.156 135.05 15.296C134.929 15.4267 134.766 15.492 134.56 15.492ZM139.067 23.64C138.712 23.64 138.371 23.5933 138.045 23.5C137.718 23.3973 137.419 23.2573 137.149 23.08C136.887 22.9027 136.659 22.6927 136.463 22.45L137.093 21.806C137.354 22.1233 137.648 22.3613 137.975 22.52C138.311 22.6693 138.684 22.744 139.095 22.744C139.533 22.744 139.874 22.66 140.117 22.492C140.369 22.324 140.495 22.0907 140.495 21.792C140.495 21.512 140.406 21.2927 140.229 21.134C140.051 20.9753 139.823 20.8493 139.543 20.756C139.272 20.6627 138.983 20.574 138.675 20.49C138.367 20.3967 138.073 20.2847 137.793 20.154C137.513 20.014 137.284 19.8227 137.107 19.58C136.939 19.3373 136.855 19.02 136.855 18.628C136.855 18.2547 136.943 17.9327 137.121 17.662C137.307 17.382 137.569 17.1673 137.905 17.018C138.25 16.8593 138.656 16.78 139.123 16.78C139.617 16.78 140.065 16.8687 140.467 17.046C140.868 17.2233 141.19 17.4847 141.433 17.83L140.803 18.46C140.607 18.208 140.359 18.0167 140.061 17.886C139.771 17.746 139.445 17.676 139.081 17.676C138.661 17.676 138.339 17.76 138.115 17.928C137.9 18.0867 137.793 18.2967 137.793 18.558C137.793 18.81 137.881 19.0107 138.059 19.16C138.236 19.3 138.46 19.4167 138.731 19.51C139.011 19.594 139.305 19.6827 139.613 19.776C139.921 19.86 140.215 19.9767 140.495 20.126C140.775 20.266 140.999 20.462 141.167 20.714C141.344 20.9567 141.433 21.288 141.433 21.708C141.433 22.296 141.218 22.7673 140.789 23.122C140.369 23.4673 139.795 23.64 139.067 23.64ZM146.022 23.64C145.36 23.64 144.767 23.4907 144.244 23.192C143.722 22.8933 143.306 22.4827 142.998 21.96C142.7 21.4373 142.55 20.8493 142.55 20.196C142.55 19.552 142.7 18.9733 142.998 18.46C143.297 17.9373 143.703 17.5267 144.216 17.228C144.73 16.9293 145.304 16.78 145.938 16.78C146.536 16.78 147.063 16.9153 147.52 17.186C147.987 17.4567 148.351 17.8347 148.612 18.32C148.883 18.796 149.018 19.3467 149.018 19.972C149.018 20.0467 149.014 20.1353 149.004 20.238C148.995 20.3313 148.976 20.4433 148.948 20.574H143.25V19.734H148.416L148.066 20.042C148.076 19.5567 147.992 19.1413 147.814 18.796C147.646 18.4413 147.399 18.1707 147.072 17.984C146.755 17.788 146.368 17.69 145.91 17.69C145.434 17.69 145.019 17.7927 144.664 17.998C144.31 18.2033 144.03 18.4927 143.824 18.866C143.628 19.23 143.53 19.664 143.53 20.168C143.53 20.672 143.633 21.1153 143.838 21.498C144.053 21.8807 144.347 22.1793 144.72 22.394C145.103 22.6087 145.542 22.716 146.036 22.716C146.438 22.716 146.806 22.646 147.142 22.506C147.478 22.3567 147.763 22.1373 147.996 21.848L148.626 22.492C148.318 22.856 147.936 23.1407 147.478 23.346C147.03 23.542 146.545 23.64 146.022 23.64ZM154.779 23.5L152.581 20.504L152.371 20.336L149.725 16.92H150.943L152.987 19.608L153.183 19.776L155.983 23.5H154.779ZM149.613 23.5L152.385 19.888L152.931 20.616L150.775 23.5H149.613ZM153.253 20.322L152.693 19.608L154.709 16.92H155.871L153.253 20.322ZM164.899 23.64C164.208 23.64 163.564 23.514 162.967 23.262C162.379 23.01 161.865 22.6553 161.427 22.198C160.988 21.7407 160.647 21.2133 160.405 20.616C160.171 20.0093 160.055 19.3607 160.055 18.67C160.055 17.9793 160.171 17.3353 160.405 16.738C160.647 16.1313 160.983 15.604 161.413 15.156C161.851 14.708 162.365 14.358 162.953 14.106C163.541 13.854 164.175 13.728 164.857 13.728C165.594 13.728 166.252 13.8587 166.831 14.12C167.419 14.3813 167.932 14.7407 168.371 15.198L167.671 15.898C167.335 15.5247 166.929 15.2353 166.453 15.03C165.977 14.8153 165.445 14.708 164.857 14.708C164.315 14.708 163.816 14.806 163.359 15.002C162.911 15.198 162.514 15.478 162.169 15.842C161.833 16.1967 161.571 16.6167 161.385 17.102C161.207 17.578 161.119 18.1007 161.119 18.67C161.119 19.2393 161.212 19.7667 161.399 20.252C161.585 20.7373 161.847 21.162 162.183 21.526C162.519 21.8807 162.915 22.156 163.373 22.352C163.83 22.548 164.329 22.646 164.871 22.646C165.487 22.646 166.033 22.5387 166.509 22.324C166.994 22.1093 167.405 21.8153 167.741 21.442L168.441 22.156C168.011 22.6133 167.498 22.9773 166.901 23.248C166.303 23.5093 165.636 23.64 164.899 23.64ZM172.722 23.64C172.087 23.64 171.509 23.486 170.986 23.178C170.473 22.87 170.062 22.4547 169.754 21.932C169.455 21.4093 169.306 20.826 169.306 20.182C169.306 19.5473 169.455 18.9733 169.754 18.46C170.062 17.9467 170.473 17.5407 170.986 17.242C171.509 16.934 172.087 16.78 172.722 16.78C173.366 16.78 173.945 16.9293 174.458 17.228C174.971 17.5267 175.377 17.9373 175.676 18.46C175.984 18.9733 176.138 19.5473 176.138 20.182C176.138 20.8353 175.984 21.4233 175.676 21.946C175.377 22.4593 174.971 22.87 174.458 23.178C173.945 23.486 173.366 23.64 172.722 23.64ZM172.722 22.688C173.189 22.688 173.599 22.5807 173.954 22.366C174.318 22.1513 174.603 21.8527 174.808 21.47C175.023 21.0873 175.13 20.658 175.13 20.182C175.13 19.706 175.023 19.286 174.808 18.922C174.603 18.5487 174.318 18.2547 173.954 18.04C173.599 17.8253 173.189 17.718 172.722 17.718C172.265 17.718 171.854 17.8253 171.49 18.04C171.126 18.2547 170.841 18.5487 170.636 18.922C170.431 19.286 170.328 19.706 170.328 20.182C170.328 20.6673 170.431 21.1013 170.636 21.484C170.841 21.8573 171.126 22.1513 171.49 22.366C171.854 22.5807 172.265 22.688 172.722 22.688ZM177.697 23.5V13.588H178.677V23.5H177.697ZM180.664 23.5V13.588H181.644V23.5H180.664ZM186.669 23.64C186.006 23.64 185.413 23.4907 184.891 23.192C184.368 22.8933 183.953 22.4827 183.645 21.96C183.346 21.4373 183.197 20.8493 183.197 20.196C183.197 19.552 183.346 18.9733 183.645 18.46C183.943 17.9373 184.349 17.5267 184.863 17.228C185.376 16.9293 185.95 16.78 186.585 16.78C187.182 16.78 187.709 16.9153 188.167 17.186C188.633 17.4567 188.997 17.8347 189.259 18.32C189.529 18.796 189.665 19.3467 189.665 19.972C189.665 20.0467 189.66 20.1353 189.651 20.238C189.641 20.3313 189.623 20.4433 189.595 20.574H183.897V19.734H189.063L188.713 20.042C188.722 19.5567 188.638 19.1413 188.461 18.796C188.293 18.4413 188.045 18.1707 187.719 17.984C187.401 17.788 187.014 17.69 186.557 17.69C186.081 17.69 185.665 17.7927 185.311 17.998C184.956 18.2033 184.676 18.4927 184.471 18.866C184.275 19.23 184.177 19.664 184.177 20.168C184.177 20.672 184.279 21.1153 184.485 21.498C184.699 21.8807 184.993 22.1793 185.367 22.394C185.749 22.6087 186.188 22.716 186.683 22.716C187.084 22.716 187.453 22.646 187.789 22.506C188.125 22.3567 188.409 22.1373 188.643 21.848L189.273 22.492C188.965 22.856 188.582 23.1407 188.125 23.346C187.677 23.542 187.191 23.64 186.669 23.64ZM194.16 23.64C193.516 23.64 192.933 23.4907 192.41 23.192C191.897 22.884 191.486 22.4687 191.178 21.946C190.879 21.4233 190.73 20.84 190.73 20.196C190.73 19.552 190.879 18.9733 191.178 18.46C191.486 17.9373 191.897 17.5267 192.41 17.228C192.933 16.9293 193.516 16.78 194.16 16.78C194.655 16.78 195.117 16.8733 195.546 17.06C195.975 17.2467 196.339 17.508 196.638 17.844L195.994 18.502C195.77 18.25 195.499 18.0587 195.182 17.928C194.865 17.788 194.524 17.718 194.16 17.718C193.693 17.718 193.278 17.8253 192.914 18.04C192.55 18.2547 192.265 18.5487 192.06 18.922C191.855 19.286 191.752 19.7107 191.752 20.196C191.752 20.672 191.855 21.1013 192.06 21.484C192.265 21.8573 192.55 22.1513 192.914 22.366C193.278 22.5807 193.693 22.688 194.16 22.688C194.533 22.688 194.879 22.6227 195.196 22.492C195.513 22.352 195.784 22.156 196.008 21.904L196.666 22.562C196.358 22.9073 195.985 23.1733 195.546 23.36C195.117 23.5467 194.655 23.64 194.16 23.64ZM199.008 23.5V14.148H199.988V23.5H199.008ZM197.342 17.802V16.92H201.64V17.802H197.342ZM202.99 23.5V16.92H203.984V23.5H202.99ZM203.48 15.492C203.293 15.492 203.135 15.4267 203.004 15.296C202.873 15.156 202.808 14.9927 202.808 14.806C202.808 14.61 202.873 14.4467 203.004 14.316C203.135 14.1853 203.293 14.12 203.48 14.12C203.685 14.12 203.849 14.1853 203.97 14.316C204.101 14.4467 204.166 14.61 204.166 14.806C204.166 14.9927 204.101 15.156 203.97 15.296C203.849 15.4267 203.685 15.492 203.48 15.492ZM208.953 23.64C208.318 23.64 207.739 23.486 207.217 23.178C206.703 22.87 206.293 22.4547 205.985 21.932C205.686 21.4093 205.537 20.826 205.537 20.182C205.537 19.5473 205.686 18.9733 205.985 18.46C206.293 17.9467 206.703 17.5407 207.217 17.242C207.739 16.934 208.318 16.78 208.953 16.78C209.597 16.78 210.175 16.9293 210.689 17.228C211.202 17.5267 211.608 17.9373 211.907 18.46C212.215 18.9733 212.369 19.5473 212.369 20.182C212.369 20.8353 212.215 21.4233 211.907 21.946C211.608 22.4593 211.202 22.87 210.689 23.178C210.175 23.486 209.597 23.64 208.953 23.64ZM208.953 22.688C209.419 22.688 209.83 22.5807 210.185 22.366C210.549 22.1513 210.833 21.8527 211.039 21.47C211.253 21.0873 211.361 20.658 211.361 20.182C211.361 19.706 211.253 19.286 211.039 18.922C210.833 18.5487 210.549 18.2547 210.185 18.04C209.83 17.8253 209.419 17.718 208.953 17.718C208.495 17.718 208.085 17.8253 207.721 18.04C207.357 18.2547 207.072 18.5487 206.867 18.922C206.661 19.286 206.559 19.706 206.559 20.182C206.559 20.6673 206.661 21.1013 206.867 21.484C207.072 21.8573 207.357 22.1513 207.721 22.366C208.085 22.5807 208.495 22.688 208.953 22.688ZM218.716 23.5V19.636C218.716 19.0573 218.543 18.5907 218.198 18.236C217.862 17.872 217.414 17.69 216.854 17.69C216.471 17.69 216.135 17.774 215.846 17.942C215.556 18.11 215.328 18.3387 215.16 18.628C214.992 18.9173 214.908 19.2487 214.908 19.622L214.46 19.37C214.46 18.8753 214.576 18.432 214.81 18.04C215.043 17.648 215.356 17.34 215.748 17.116C216.149 16.892 216.606 16.78 217.12 16.78C217.624 16.78 218.072 16.9013 218.464 17.144C218.856 17.3867 219.159 17.7133 219.374 18.124C219.598 18.5347 219.71 18.9827 219.71 19.468V23.5H218.716ZM213.928 23.5V16.92H214.908V23.5H213.928Z" fill="#5D5D5D"/>
<path d="M235 14L239 18L235 22" stroke="#5D5D5D" stroke-linecap="round" stroke-linejoin="round"/>
<path d="M256.892 23.64C256.145 23.64 255.501 23.5 254.96 23.22C254.419 22.9307 253.943 22.5293 253.532 22.016L254.246 21.316C254.573 21.7733 254.951 22.114 255.38 22.338C255.819 22.562 256.337 22.674 256.934 22.674C257.55 22.674 258.049 22.534 258.432 22.254C258.815 21.974 259.006 21.5867 259.006 21.092C259.006 20.7093 258.917 20.3967 258.74 20.154C258.563 19.902 258.329 19.7013 258.04 19.552C257.76 19.3933 257.447 19.2533 257.102 19.132C256.757 19.0107 256.411 18.8847 256.066 18.754C255.73 18.614 255.417 18.4413 255.128 18.236C254.839 18.0307 254.605 17.7693 254.428 17.452C254.26 17.1347 254.176 16.7287 254.176 16.234C254.176 15.7113 254.302 15.2633 254.554 14.89C254.806 14.5167 255.151 14.232 255.59 14.036C256.029 13.8307 256.528 13.728 257.088 13.728C257.713 13.728 258.269 13.8493 258.754 14.092C259.249 14.3347 259.659 14.6613 259.986 15.072L259.286 15.772C258.987 15.4173 258.661 15.1467 258.306 14.96C257.951 14.7733 257.536 14.68 257.06 14.68C256.5 14.68 256.052 14.8107 255.716 15.072C255.38 15.3333 255.212 15.6973 255.212 16.164C255.212 16.528 255.296 16.822 255.464 17.046C255.641 17.27 255.875 17.4567 256.164 17.606C256.453 17.7553 256.766 17.8907 257.102 18.012C257.447 18.124 257.793 18.25 258.138 18.39C258.483 18.53 258.796 18.7073 259.076 18.922C259.365 19.1367 259.599 19.412 259.776 19.748C259.953 20.0747 260.042 20.4947 260.042 21.008C260.042 21.8387 259.757 22.4873 259.188 22.954C258.628 23.4113 257.863 23.64 256.892 23.64ZM265.148 23.64C264.644 23.64 264.191 23.5373 263.79 23.332C263.389 23.1267 263.057 22.8467 262.796 22.492C262.544 22.128 262.39 21.708 262.334 21.232V19.174C262.39 18.6887 262.549 18.2687 262.81 17.914C263.071 17.55 263.403 17.27 263.804 17.074C264.215 16.878 264.663 16.78 265.148 16.78C265.755 16.78 266.301 16.934 266.786 17.242C267.271 17.5407 267.654 17.9513 267.934 18.474C268.223 18.9873 268.368 19.5707 268.368 20.224C268.368 20.868 268.228 21.4467 267.948 21.96C267.668 22.4733 267.281 22.884 266.786 23.192C266.301 23.4907 265.755 23.64 265.148 23.64ZM261.746 26.272V16.92H262.726V18.6L262.53 20.196L262.726 21.806V26.272H261.746ZM264.98 22.702C265.447 22.702 265.857 22.5993 266.212 22.394C266.567 22.1793 266.842 21.8853 267.038 21.512C267.243 21.1293 267.346 20.6953 267.346 20.21C267.346 19.7153 267.243 19.2813 267.038 18.908C266.842 18.5347 266.567 18.2407 266.212 18.026C265.857 17.8113 265.451 17.704 264.994 17.704C264.537 17.704 264.131 17.8113 263.776 18.026C263.431 18.2407 263.16 18.5347 262.964 18.908C262.768 19.2813 262.67 19.7153 262.67 20.21C262.67 20.6953 262.768 21.1293 262.964 21.512C263.16 21.8853 263.431 22.1793 263.776 22.394C264.121 22.5993 264.523 22.702 264.98 22.702ZM272.917 23.64C272.283 23.64 271.704 23.486 271.181 23.178C270.668 22.87 270.257 22.4547 269.949 21.932C269.651 21.4093 269.501 20.826 269.501 20.182C269.501 19.5473 269.651 18.9733 269.949 18.46C270.257 17.9467 270.668 17.5407 271.181 17.242C271.704 16.934 272.283 16.78 272.917 16.78C273.561 16.78 274.14 16.9293 274.653 17.228C275.167 17.5267 275.573 17.9373 275.871 18.46C276.179 18.9733 276.333 19.5473 276.333 20.182C276.333 20.8353 276.179 21.4233 275.871 21.946C275.573 22.4593 275.167 22.87 274.653 23.178C274.14 23.486 273.561 23.64 272.917 23.64ZM272.917 22.688C273.384 22.688 273.795 22.5807 274.149 22.366C274.513 22.1513 274.798 21.8527 275.003 21.47C275.218 21.0873 275.325 20.658 275.325 20.182C275.325 19.706 275.218 19.286 275.003 18.922C274.798 18.5487 274.513 18.2547 274.149 18.04C273.795 17.8253 273.384 17.718 272.917 17.718C272.46 17.718 272.049 17.8253 271.685 18.04C271.321 18.2547 271.037 18.5487 270.831 18.922C270.626 19.286 270.523 19.706 270.523 20.182C270.523 20.6673 270.626 21.1013 270.831 21.484C271.037 21.8573 271.321 22.1513 271.685 22.366C272.049 22.5807 272.46 22.688 272.917 22.688ZM277.892 23.5V16.92H278.872V23.5H277.892ZM278.872 19.734L278.466 19.552C278.466 18.7213 278.681 18.0773 279.11 17.62C279.549 17.1533 280.212 16.92 281.098 16.92H285.592V17.802H280.93C280.258 17.802 279.745 17.9653 279.39 18.292C279.045 18.6093 278.872 19.09 278.872 19.734ZM282.946 23.5V14.148H283.94V23.5H282.946ZM288.823 23.64C288.468 23.64 288.127 23.5933 287.801 23.5C287.474 23.3973 287.175 23.2573 286.905 23.08C286.643 22.9027 286.415 22.6927 286.219 22.45L286.849 21.806C287.11 22.1233 287.404 22.3613 287.731 22.52C288.067 22.6693 288.44 22.744 288.851 22.744C289.289 22.744 289.63 22.66 289.873 22.492C290.125 22.324 290.251 22.0907 290.251 21.792C290.251 21.512 290.162 21.2927 289.985 21.134C289.807 20.9753 289.579 20.8493 289.299 20.756C289.028 20.6627 288.739 20.574 288.431 20.49C288.123 20.3967 287.829 20.2847 287.549 20.154C287.269 20.014 287.04 19.8227 286.863 19.58C286.695 19.3373 286.611 19.02 286.611 18.628C286.611 18.2547 286.699 17.9327 286.877 17.662C287.063 17.382 287.325 17.1673 287.66 17.018C288.006 16.8593 288.412 16.78 288.879 16.78C289.373 16.78 289.821 16.8687 290.223 17.046C290.624 17.2233 290.946 17.4847 291.189 17.83L290.559 18.46C290.363 18.208 290.115 18.0167 289.817 17.886C289.527 17.746 289.201 17.676 288.837 17.676C288.417 17.676 288.095 17.76 287.87 17.928C287.656 18.0867 287.549 18.2967 287.549 18.558C287.549 18.81 287.637 19.0107 287.815 19.16C287.992 19.3 288.216 19.4167 288.487 19.51C288.767 19.594 289.061 19.6827 289.369 19.776C289.677 19.86 289.971 19.9767 290.251 20.126C290.531 20.266 290.755 20.462 290.923 20.714C291.1 20.9567 291.189 21.288 291.189 21.708C291.189 22.296 290.974 22.7673 290.545 23.122C290.125 23.4673 289.551 23.64 288.823 23.64Z" fill="#5D5D5D"/>
<path d="M306 14L310 18L306 22" stroke="#5D5D5D" stroke-linecap="round" stroke-linejoin="round"/>
<path d="M329.586 23.626C328.905 23.626 328.27 23.5 327.682 23.248C327.094 22.996 326.581 22.646 326.142 22.198C325.703 21.75 325.363 21.2273 325.12 20.63C324.877 20.0233 324.756 19.37 324.756 18.67C324.756 17.97 324.877 17.3213 325.12 16.724C325.372 16.1267 325.717 15.604 326.156 15.156C326.595 14.6987 327.113 14.344 327.71 14.092C328.307 13.84 328.956 13.714 329.656 13.714C330.431 13.714 331.14 13.868 331.784 14.176C332.437 14.484 332.974 14.918 333.394 15.478L332.68 16.192C332.344 15.716 331.915 15.352 331.392 15.1C330.869 14.8387 330.291 14.708 329.656 14.708C328.9 14.708 328.233 14.8807 327.654 15.226C327.075 15.562 326.623 16.0287 326.296 16.626C325.979 17.2233 325.82 17.9093 325.82 18.684C325.82 19.4493 325.979 20.1307 326.296 20.728C326.623 21.3253 327.066 21.7967 327.626 22.142C328.195 22.478 328.839 22.646 329.558 22.646C330.277 22.646 330.897 22.5013 331.42 22.212C331.952 21.9227 332.358 21.5027 332.638 20.952C332.927 20.4013 333.077 19.7387 333.086 18.964L333.674 19.398H329.46V18.46H334.15V18.614C334.15 19.6967 333.954 20.6113 333.562 21.358C333.179 22.1047 332.647 22.6693 331.966 23.052C331.285 23.4347 330.491 23.626 329.586 23.626ZM340.483 23.64C339.792 23.64 339.148 23.514 338.551 23.262C337.963 23.01 337.449 22.6553 337.011 22.198C336.572 21.7407 336.231 21.2133 335.989 20.616C335.755 20.0093 335.639 19.3607 335.639 18.67C335.639 17.9793 335.755 17.3353 335.989 16.738C336.231 16.1313 336.567 15.604 336.997 15.156C337.435 14.708 337.949 14.358 338.537 14.106C339.125 13.854 339.759 13.728 340.441 13.728C341.178 13.728 341.836 13.8587 342.415 14.12C343.003 14.3813 343.516 14.7407 343.955 15.198L343.255 15.898C342.919 15.5247 342.513 15.2353 342.037 15.03C341.561 14.8153 341.029 14.708 340.441 14.708C339.899 14.708 339.4 14.806 338.943 15.002C338.495 15.198 338.098 15.478 337.753 15.842C337.417 16.1967 337.155 16.6167 336.969 17.102C336.791 17.578 336.703 18.1007 336.703 18.67C336.703 19.2393 336.796 19.7667 336.983 20.252C337.169 20.7373 337.431 21.162 337.767 21.526C338.103 21.8807 338.499 22.156 338.957 22.352C339.414 22.548 339.913 22.646 340.455 22.646C341.071 22.646 341.617 22.5387 342.093 22.324C342.578 22.1093 342.989 21.8153 343.325 21.442L344.025 22.156C343.595 22.6133 343.082 22.9773 342.485 23.248C341.887 23.5093 341.22 23.64 340.483 23.64ZM349.779 23.626C349.098 23.626 348.463 23.5 347.875 23.248C347.287 22.996 346.774 22.646 346.335 22.198C345.897 21.75 345.556 21.2273 345.313 20.63C345.071 20.0233 344.949 19.37 344.949 18.67C344.949 17.97 345.071 17.3213 345.313 16.724C345.565 16.1267 345.911 15.604 346.349 15.156C346.788 14.6987 347.306 14.344 347.903 14.092C348.501 13.84 349.149 13.714 349.849 13.714C350.624 13.714 351.333 13.868 351.977 14.176C352.631 14.484 353.167 14.918 353.587 15.478L352.873 16.192C352.537 15.716 352.108 15.352 351.585 15.1C351.063 14.8387 350.484 14.708 349.849 14.708C349.093 14.708 348.426 14.8807 347.847 15.226C347.269 15.562 346.816 16.0287 346.489 16.626C346.172 17.2233 346.013 17.9093 346.013 18.684C346.013 19.4493 346.172 20.1307 346.489 20.728C346.816 21.3253 347.259 21.7967 347.819 22.142C348.389 22.478 349.033 22.646 349.751 22.646C350.47 22.646 351.091 22.5013 351.613 22.212C352.145 21.9227 352.551 21.5027 352.831 20.952C353.121 20.4013 353.27 19.7387 353.279 18.964L353.867 19.398H349.653V18.46H354.343V18.614C354.343 19.6967 354.147 20.6113 353.755 21.358C353.373 22.1047 352.841 22.6693 352.159 23.052C351.478 23.4347 350.685 23.626 349.779 23.626ZM361.921 23.64C361.175 23.64 360.531 23.5 359.989 23.22C359.448 22.9307 358.972 22.5293 358.561 22.016L359.275 21.316C359.602 21.7733 359.98 22.114 360.409 22.338C360.848 22.562 361.366 22.674 361.963 22.674C362.579 22.674 363.079 22.534 363.461 22.254C363.844 21.974 364.035 21.5867 364.035 21.092C364.035 20.7093 363.947 20.3967 363.769 20.154C363.592 19.902 363.359 19.7013 363.069 19.552C362.789 19.3933 362.477 19.2533 362.131 19.132C361.786 19.0107 361.441 18.8847 361.095 18.754C360.759 18.614 360.447 18.4413 360.157 18.236C359.868 18.0307 359.635 17.7693 359.457 17.452C359.289 17.1347 359.205 16.7287 359.205 16.234C359.205 15.7113 359.331 15.2633 359.583 14.89C359.835 14.5167 360.181 14.232 360.619 14.036C361.058 13.8307 361.557 13.728 362.117 13.728C362.743 13.728 363.298 13.8493 363.783 14.092C364.278 14.3347 364.689 14.6613 365.015 15.072L364.315 15.772C364.017 15.4173 363.69 15.1467 363.335 14.96C362.981 14.7733 362.565 14.68 362.089 14.68C361.529 14.68 361.081 14.8107 360.745 15.072C360.409 15.3333 360.241 15.6973 360.241 16.164C360.241 16.528 360.325 16.822 360.493 17.046C360.671 17.27 360.904 17.4567 361.193 17.606C361.483 17.7553 361.795 17.8907 362.131 18.012C362.477 18.124 362.822 18.25 363.167 18.39C363.513 18.53 363.825 18.7073 364.105 18.922C364.395 19.1367 364.628 19.412 364.805 19.748C364.983 20.0747 365.071 20.4947 365.071 21.008C365.071 21.8387 364.787 22.4873 364.217 22.954C363.657 23.4113 362.892 23.64 361.921 23.64ZM369.379 23.64C368.847 23.64 368.371 23.5187 367.951 23.276C367.531 23.024 367.2 22.6833 366.957 22.254C366.724 21.8247 366.607 21.3207 366.607 20.742V16.92H367.601V20.7C367.601 21.1013 367.671 21.4513 367.811 21.75C367.961 22.0487 368.171 22.282 368.441 22.45C368.712 22.618 369.025 22.702 369.379 22.702C369.93 22.702 370.364 22.52 370.681 22.156C371.008 21.792 371.171 21.3067 371.171 20.7V16.92H372.151V20.742C372.151 21.3113 372.035 21.8153 371.801 22.254C371.568 22.6927 371.241 23.0333 370.821 23.276C370.401 23.5187 369.921 23.64 369.379 23.64ZM378.768 23.5V19.636C378.768 19.0573 378.596 18.5907 378.25 18.236C377.914 17.872 377.466 17.69 376.906 17.69C376.524 17.69 376.188 17.774 375.898 17.942C375.609 18.11 375.38 18.3387 375.212 18.628C375.044 18.9173 374.96 19.2487 374.96 19.622L374.512 19.37C374.512 18.8753 374.629 18.432 374.862 18.04C375.096 17.648 375.408 17.34 375.8 17.116C376.202 16.892 376.659 16.78 377.172 16.78C377.676 16.78 378.124 16.9013 378.516 17.144C378.908 17.3867 379.212 17.7133 379.426 18.124C379.65 18.5347 379.762 18.9827 379.762 19.468V23.5H378.768ZM373.98 23.5V16.92H374.96V23.5H373.98ZM384.312 26.412C383.649 26.412 383.056 26.286 382.534 26.034C382.02 25.7913 381.605 25.446 381.288 24.998L381.932 24.354C382.193 24.7087 382.524 24.984 382.926 25.18C383.327 25.376 383.798 25.474 384.34 25.474C385.086 25.474 385.679 25.2733 386.118 24.872C386.566 24.4707 386.79 23.9247 386.79 23.234V21.596L386.986 20.098L386.79 18.614V16.92H387.77V23.234C387.77 23.8687 387.625 24.424 387.336 24.9C387.046 25.376 386.64 25.7447 386.118 26.006C385.604 26.2767 385.002 26.412 384.312 26.412ZM384.382 23.43C383.775 23.43 383.229 23.2853 382.744 22.996C382.258 22.7067 381.876 22.31 381.596 21.806C381.316 21.302 381.176 20.7327 381.176 20.098C381.176 19.4633 381.311 18.8987 381.582 18.404C381.862 17.9 382.244 17.5033 382.73 17.214C383.215 16.9247 383.761 16.78 384.368 16.78C384.881 16.78 385.338 16.878 385.74 17.074C386.15 17.27 386.477 17.55 386.72 17.914C386.972 18.2687 387.126 18.6887 387.182 19.174V21.036C387.126 21.512 386.972 21.932 386.72 22.296C386.468 22.6507 386.141 22.9307 385.74 23.136C385.338 23.332 384.886 23.43 384.382 23.43ZM384.564 22.492C385.021 22.492 385.418 22.394 385.754 22.198C386.099 22.002 386.365 21.7267 386.552 21.372C386.748 21.008 386.846 20.5833 386.846 20.098C386.846 19.622 386.748 19.2067 386.552 18.852C386.365 18.4973 386.099 18.2173 385.754 18.012C385.408 17.8067 385.007 17.704 384.55 17.704C384.092 17.704 383.682 17.8067 383.318 18.012C382.963 18.2173 382.683 18.4973 382.478 18.852C382.282 19.2067 382.184 19.622 382.184 20.098C382.184 20.5647 382.286 20.98 382.492 21.344C382.697 21.708 382.977 21.9927 383.332 22.198C383.686 22.394 384.097 22.492 384.564 22.492ZM389.744 23.5V13.588H390.724V23.5H389.744ZM395.567 23.64C394.941 23.64 394.381 23.4907 393.887 23.192C393.392 22.884 393 22.4733 392.711 21.96C392.431 21.4467 392.291 20.868 392.291 20.224C392.291 19.5707 392.431 18.9873 392.711 18.474C393 17.9513 393.392 17.5407 393.887 17.242C394.381 16.934 394.937 16.78 395.553 16.78C396.057 16.78 396.505 16.8827 396.897 17.088C397.298 17.284 397.62 17.564 397.863 17.928C398.115 18.2827 398.269 18.698 398.325 19.174V21.232C398.269 21.708 398.115 22.128 397.863 22.492C397.62 22.856 397.298 23.1407 396.897 23.346C396.505 23.542 396.061 23.64 395.567 23.64ZM395.721 22.702C396.402 22.702 396.948 22.4733 397.359 22.016C397.779 21.5587 397.989 20.9567 397.989 20.21C397.989 19.7153 397.891 19.2813 397.695 18.908C397.508 18.5253 397.242 18.2313 396.897 18.026C396.561 17.8113 396.164 17.704 395.707 17.704C395.24 17.704 394.825 17.8113 394.461 18.026C394.106 18.2407 393.821 18.5393 393.607 18.922C393.401 19.2953 393.299 19.7247 393.299 20.21C393.299 20.6953 393.401 21.1247 393.607 21.498C393.821 21.8713 394.111 22.1653 394.475 22.38C394.839 22.5947 395.254 22.702 395.721 22.702ZM397.933 23.5V21.736L398.129 20.112L397.933 18.53V16.92H398.913V23.5H397.933ZM402.916 23.64C402.562 23.64 402.221 23.5933 401.894 23.5C401.568 23.3973 401.269 23.2573 400.998 23.08C400.737 22.9027 400.508 22.6927 400.312 22.45L400.942 21.806C401.204 22.1233 401.498 22.3613 401.824 22.52C402.16 22.6693 402.534 22.744 402.944 22.744C403.383 22.744 403.724 22.66 403.966 22.492C404.218 22.324 404.344 22.0907 404.344 21.792C404.344 21.512 404.256 21.2927 404.078 21.134C403.901 20.9753 403.672 20.8493 403.392 20.756C403.122 20.6627 402.832 20.574 402.524 20.49C402.216 20.3967 401.922 20.2847 401.642 20.154C401.362 20.014 401.134 19.8227 400.956 19.58C400.788 19.3373 400.704 19.02 400.704 18.628C400.704 18.2547 400.793 17.9327 400.97 17.662C401.157 17.382 401.418 17.1673 401.754 17.018C402.1 16.8593 402.506 16.78 402.972 16.78C403.467 16.78 403.915 16.8687 404.316 17.046C404.718 17.2233 405.04 17.4847 405.282 17.83L404.652 18.46C404.456 18.208 404.209 18.0167 403.91 17.886C403.621 17.746 403.294 17.676 402.93 17.676C402.51 17.676 402.188 17.76 401.964 17.928C401.75 18.0867 401.642 18.2967 401.642 18.558C401.642 18.81 401.731 19.0107 401.908 19.16C402.086 19.3 402.31 19.4167 402.58 19.51C402.86 19.594 403.154 19.6827 403.462 19.776C403.77 19.86 404.064 19.9767 404.344 20.126C404.624 20.266 404.848 20.462 405.016 20.714C405.194 20.9567 405.282 21.288 405.282 21.708C405.282 22.296 405.068 22.7673 404.638 23.122C404.218 23.4673 403.644 23.64 402.916 23.64ZM408.85 23.64C408.495 23.64 408.155 23.5933 407.828 23.5C407.501 23.3973 407.203 23.2573 406.932 23.08C406.671 22.9027 406.442 22.6927 406.246 22.45L406.876 21.806C407.137 22.1233 407.431 22.3613 407.758 22.52C408.094 22.6693 408.467 22.744 408.878 22.744C409.317 22.744 409.657 22.66 409.9 22.492C410.152 22.324 410.278 22.0907 410.278 21.792C410.278 21.512 410.189 21.2927 410.012 21.134C409.835 20.9753 409.606 20.8493 409.326 20.756C409.055 20.6627 408.766 20.574 408.458 20.49C408.15 20.3967 407.856 20.2847 407.576 20.154C407.296 20.014 407.067 19.8227 406.89 19.58C406.722 19.3373 406.638 19.02 406.638 18.628C406.638 18.2547 406.727 17.9327 406.904 17.662C407.091 17.382 407.352 17.1673 407.688 17.018C408.033 16.8593 408.439 16.78 408.906 16.78C409.401 16.78 409.849 16.8687 410.25 17.046C410.651 17.2233 410.973 17.4847 411.216 17.83L410.586 18.46C410.39 18.208 410.143 18.0167 409.844 17.886C409.555 17.746 409.228 17.676 408.864 17.676C408.444 17.676 408.122 17.76 407.898 17.928C407.683 18.0867 407.576 18.2967 407.576 18.558C407.576 18.81 407.665 19.0107 407.842 19.16C408.019 19.3 408.243 19.4167 408.514 19.51C408.794 19.594 409.088 19.6827 409.396 19.776C409.704 19.86 409.998 19.9767 410.278 20.126C410.558 20.266 410.782 20.462 410.95 20.714C411.127 20.9567 411.216 21.288 411.216 21.708C411.216 22.296 411.001 22.7673 410.572 23.122C410.152 23.4673 409.578 23.64 408.85 23.64Z" fill="#2077BC"/>
<path d="M13.248 80.54C10.92 80.54 8.856 80.144 7.056 79.352C5.256 78.536 3.84 77.216 2.808 75.392C1.776 73.544 1.26 71.084 1.26 68.012C1.26 65.012 1.776 62.588 2.808 60.74C3.84 58.868 5.256 57.512 7.056 56.672C8.856 55.808 10.908 55.376 13.212 55.376C14.82 55.376 16.38 55.544 17.892 55.88C19.404 56.192 20.856 56.624 22.248 57.176V63.584C20.664 62.72 19.248 62.048 18 61.568C16.776 61.064 15.492 60.812 14.148 60.812C13.044 60.812 12.072 61.016 11.232 61.424C10.416 61.808 9.78 62.516 9.324 63.548C8.868 64.58 8.64 66.056 8.64 67.976C8.64 69.848 8.88 71.312 9.36 72.368C9.84 73.4 10.464 74.132 11.232 74.564C12.024 74.972 12.864 75.176 13.752 75.176C14.28 75.176 14.748 75.14 15.156 75.068C15.588 74.996 15.924 74.876 16.164 74.708V71.576H12.96V66.176H23.364V77.66C21.804 78.572 20.16 79.28 18.432 79.784C16.728 80.288 15 80.54 13.248 80.54ZM37.1112 80.54C33.1992 80.54 30.1992 79.544 28.1112 77.552C26.0232 75.536 24.9792 72.356 24.9792 68.012C24.9792 63.86 25.9632 60.716 27.9312 58.58C29.9232 56.444 32.9832 55.376 37.1112 55.376C38.3832 55.376 39.6792 55.532 40.9992 55.844C42.3432 56.156 43.6392 56.588 44.8872 57.14V63.296C43.5672 62.384 42.3312 61.736 41.1792 61.352C40.0512 60.968 39.0312 60.776 38.1192 60.776C36.9672 60.776 35.9592 60.992 35.0952 61.424C34.2552 61.856 33.5952 62.6 33.1152 63.656C32.6592 64.688 32.4312 66.152 32.4312 68.048C32.4312 69.896 32.6712 71.336 33.1512 72.368C33.6312 73.4 34.3152 74.12 35.2032 74.528C36.1152 74.936 37.2072 75.14 38.4792 75.14C39.2232 75.14 40.1472 74.96 41.2512 74.6C42.3552 74.216 43.5672 73.58 44.8872 72.692V78.848C44.2632 79.184 43.5072 79.484 42.6192 79.748C41.7312 79.988 40.8072 80.18 39.8472 80.324C38.8872 80.468 37.9752 80.54 37.1112 80.54ZM58.1285 80.54C55.8005 80.54 53.7365 80.144 51.9365 79.352C50.1365 78.536 48.7205 77.216 47.6885 75.392C46.6565 73.544 46.1405 71.084 46.1405 68.012C46.1405 65.012 46.6565 62.588 47.6885 60.74C48.7205 58.868 50.1365 57.512 51.9365 56.672C53.7365 55.808 55.7885 55.376 58.0925 55.376C59.7005 55.376 61.2605 55.544 62.7725 55.88C64.2845 56.192 65.7365 56.624 67.1285 57.176V63.584C65.5445 62.72 64.1285 62.048 62.8805 61.568C61.6565 61.064 60.3725 60.812 59.0285 60.812C57.9245 60.812 56.9525 61.016 56.1125 61.424C55.2965 61.808 54.6605 62.516 54.2045 63.548C53.7485 64.58 53.5205 66.056 53.5205 67.976C53.5205 69.848 53.7605 71.312 54.2405 72.368C54.7205 73.4 55.3445 74.132 56.1125 74.564C56.9045 74.972 57.7445 75.176 58.6325 75.176C59.1605 75.176 59.6285 75.14 60.0365 75.068C60.4685 74.996 60.8045 74.876 61.0445 74.708V71.576H57.8405V66.176H68.2445V77.66C66.6845 78.572 65.0405 79.28 63.3125 79.784C61.6085 80.288 59.8805 80.54 58.1285 80.54ZM87.6268 80.54C86.4028 80.54 85.2628 80.492 84.2068 80.396C83.1508 80.324 82.1668 80.18 81.2548 79.964C80.3428 79.748 79.4908 79.448 78.6988 79.064V72.368C79.9708 73.352 81.3148 74.06 82.7308 74.492C84.1708 74.924 85.4188 75.14 86.4748 75.14C87.2428 75.14 87.8668 75.02 88.3468 74.78C88.8508 74.516 89.1028 74.012 89.1028 73.268C89.1028 72.788 88.8388 72.404 88.3108 72.116C87.7828 71.804 87.0628 71.516 86.1508 71.252C85.2388 70.988 84.2068 70.664 83.0548 70.28C82.4068 70.064 81.7708 69.788 81.1468 69.452C80.5468 69.116 80.0068 68.696 79.5268 68.192C79.0468 67.664 78.6628 67.04 78.3748 66.32C78.0868 65.576 77.9428 64.688 77.9428 63.656C77.9428 62.528 78.1468 61.46 78.5548 60.452C78.9868 59.444 79.6108 58.568 80.4268 57.824C81.2668 57.056 82.3228 56.456 83.5948 56.024C84.8668 55.592 86.3428 55.376 88.0228 55.376C89.0308 55.376 89.9308 55.436 90.7228 55.556C91.5388 55.652 92.3068 55.82 93.0268 56.06C93.7708 56.276 94.5028 56.564 95.2228 56.924V63.764C94.6948 63.284 94.0588 62.828 93.3148 62.396C92.5948 61.964 91.8388 61.604 91.0468 61.316C90.2788 61.004 89.5348 60.824 88.8148 60.776C88.2628 60.728 87.7108 60.752 87.1588 60.848C86.6308 60.944 86.1868 61.148 85.8268 61.46C85.4908 61.748 85.3228 62.18 85.3228 62.756C85.3228 63.284 85.5148 63.704 85.8988 64.016C86.2828 64.304 86.8108 64.556 87.4828 64.772C88.1788 64.964 88.9468 65.18 89.7868 65.42C90.8188 65.708 91.7428 66.032 92.5588 66.392C93.3988 66.752 94.1068 67.196 94.6828 67.724C95.2828 68.252 95.7388 68.9 96.0508 69.668C96.3628 70.412 96.5188 71.312 96.5188 72.368C96.5188 73.976 96.1348 75.404 95.3668 76.652C94.6228 77.876 93.5788 78.836 92.2348 79.532C90.9148 80.204 89.3788 80.54 87.6268 80.54ZM105.517 72.692V80H98.3166V55.988H110.089C112.945 55.988 115.213 56.624 116.893 57.896C118.573 59.168 119.413 61.196 119.413 63.98C119.413 66.764 118.573 68.912 116.893 70.424C115.213 71.936 112.945 72.692 110.089 72.692H105.517ZM105.517 67.292H109.189C109.501 67.292 109.801 67.244 110.089 67.148C110.377 67.028 110.629 66.848 110.845 66.608C111.061 66.368 111.229 66.08 111.349 65.744C111.493 65.384 111.565 64.976 111.565 64.52C111.565 63.968 111.493 63.5 111.349 63.116C111.229 62.732 111.061 62.408 110.845 62.144C110.629 61.88 110.377 61.688 110.089 61.568C109.801 61.448 109.501 61.388 109.189 61.388H105.517V67.292ZM132.248 80.54C129.872 80.54 127.772 80.096 125.948 79.208C124.124 78.32 122.696 76.952 121.664 75.104C120.632 73.256 120.116 70.892 120.116 68.012C120.116 63.884 121.196 60.764 123.356 58.652C125.516 56.516 128.48 55.448 132.248 55.448C134.624 55.448 136.724 55.892 138.548 56.78C140.372 57.668 141.8 59.036 142.832 60.884C143.864 62.708 144.38 65.072 144.38 67.976C144.38 72.104 143.3 75.236 141.14 77.372C139.004 79.484 136.04 80.54 132.248 80.54ZM132.248 74.78C133.184 74.78 134 74.576 134.696 74.168C135.392 73.736 135.932 73.028 136.316 72.044C136.724 71.036 136.928 69.668 136.928 67.94C136.928 66.212 136.724 64.856 136.316 63.872C135.932 62.888 135.392 62.204 134.696 61.82C134 61.412 133.184 61.208 132.248 61.208C131.312 61.208 130.496 61.424 129.8 61.856C129.104 62.264 128.552 62.96 128.144 63.944C127.76 64.928 127.568 66.296 127.568 68.048C127.568 69.776 127.76 71.132 128.144 72.116C128.552 73.076 129.104 73.76 129.8 74.168C130.496 74.576 131.312 74.78 132.248 74.78ZM146.185 80V55.988H158.677C161.533 55.988 163.801 56.636 165.481 57.932C167.161 59.228 168.001 61.208 168.001 63.872C168.001 64.784 167.821 65.744 167.461 66.752C167.101 67.736 166.537 68.624 165.769 69.416C165.001 70.184 164.017 70.724 162.817 71.036L161.809 68.552L169.333 80H160.045L154.501 69.776L157.633 72.332H153.385V80H146.185ZM153.385 67.256H157.777C158.401 67.256 158.953 67.04 159.433 66.608C159.913 66.152 160.153 65.348 160.153 64.196C160.153 63.212 159.913 62.504 159.433 62.072C158.953 61.616 158.401 61.388 157.777 61.388H153.385V67.256ZM175.711 80V61.388H169.699V55.988H189.067V61.388H182.911V80H175.711ZM199.107 80.54C197.883 80.54 196.743 80.492 195.687 80.396C194.631 80.324 193.647 80.18 192.735 79.964C191.823 79.748 190.971 79.448 190.179 79.064V72.368C191.451 73.352 192.795 74.06 194.211 74.492C195.651 74.924 196.899 75.14 197.955 75.14C198.723 75.14 199.347 75.02 199.827 74.78C200.331 74.516 200.583 74.012 200.583 73.268C200.583 72.788 200.319 72.404 199.791 72.116C199.263 71.804 198.543 71.516 197.631 71.252C196.719 70.988 195.687 70.664 194.535 70.28C193.887 70.064 193.251 69.788 192.627 69.452C192.027 69.116 191.487 68.696 191.007 68.192C190.527 67.664 190.143 67.04 189.855 66.32C189.567 65.576 189.423 64.688 189.423 63.656C189.423 62.528 189.627 61.46 190.035 60.452C190.467 59.444 191.091 58.568 191.907 57.824C192.747 57.056 193.803 56.456 195.075 56.024C196.347 55.592 197.823 55.376 199.503 55.376C200.511 55.376 201.411 55.436 202.203 55.556C203.019 55.652 203.787 55.82 204.507 56.06C205.251 56.276 205.983 56.564 206.703 56.924V63.764C206.175 63.284 205.539 62.828 204.795 62.396C204.075 61.964 203.319 61.604 202.527 61.316C201.759 61.004 201.015 60.824 200.295 60.776C199.743 60.728 199.191 60.752 198.639 60.848C198.111 60.944 197.667 61.148 197.307 61.46C196.971 61.748 196.803 62.18 196.803 62.756C196.803 63.284 196.995 63.704 197.379 64.016C197.763 64.304 198.291 64.556 198.963 64.772C199.659 64.964 200.427 65.18 201.267 65.42C202.299 65.708 203.223 66.032 204.039 66.392C204.879 66.752 205.587 67.196 206.163 67.724C206.763 68.252 207.219 68.9 207.531 69.668C207.843 70.412 207.999 71.312 207.999 72.368C207.999 73.976 207.615 75.404 206.847 76.652C206.103 77.876 205.059 78.836 203.715 79.532C202.395 80.204 200.859 80.54 199.107 80.54ZM226.304 80.54C225.08 80.54 223.94 80.492 222.884 80.396C221.828 80.324 220.844 80.18 219.932 79.964C219.02 79.748 218.168 79.448 217.376 79.064V72.368C218.648 73.352 219.992 74.06 221.408 74.492C222.848 74.924 224.096 75.14 225.152 75.14C225.92 75.14 226.544 75.02 227.024 74.78C227.528 74.516 227.78 74.012 227.78 73.268C227.78 72.788 227.516 72.404 226.988 72.116C226.46 71.804 225.74 71.516 224.828 71.252C223.916 70.988 222.884 70.664 221.732 70.28C221.084 70.064 220.448 69.788 219.824 69.452C219.224 69.116 218.684 68.696 218.204 68.192C217.724 67.664 217.34 67.04 217.052 66.32C216.764 65.576 216.62 64.688 216.62 63.656C216.62 62.528 216.824 61.46 217.232 60.452C217.664 59.444 218.288 58.568 219.104 57.824C219.944 57.056 221 56.456 222.272 56.024C223.544 55.592 225.02 55.376 226.7 55.376C227.708 55.376 228.608 55.436 229.4 55.556C230.216 55.652 230.984 55.82 231.704 56.06C232.448 56.276 233.18 56.564 233.9 56.924V63.764C233.372 63.284 232.736 62.828 231.992 62.396C231.272 61.964 230.516 61.604 229.724 61.316C228.956 61.004 228.212 60.824 227.492 60.776C226.94 60.728 226.388 60.752 225.836 60.848C225.308 60.944 224.864 61.148 224.504 61.46C224.168 61.748 224 62.18 224 62.756C224 63.284 224.192 63.704 224.576 64.016C224.96 64.304 225.488 64.556 226.16 64.772C226.856 64.964 227.624 65.18 228.464 65.42C229.496 65.708 230.42 66.032 231.236 66.392C232.076 66.752 232.784 67.196 233.36 67.724C233.96 68.252 234.416 68.9 234.728 69.668C235.04 70.412 235.196 71.312 235.196 72.368C235.196 73.976 234.812 75.404 234.044 76.652C233.3 77.876 232.256 78.836 230.912 79.532C229.592 80.204 228.056 80.54 226.304 80.54ZM248.73 80.9C244.746 80.9 241.794 80.156 239.874 78.668C237.954 77.18 236.994 74.756 236.994 71.396V55.988H244.554V70.964C244.554 72.5 244.842 73.64 245.418 74.384C245.994 75.128 246.966 75.5 248.334 75.5C249.51 75.5 250.434 75.128 251.106 74.384C251.778 73.64 252.114 72.5 252.114 70.964V55.988H258.954V71.396C258.954 73.628 258.51 75.452 257.622 76.868C256.734 78.26 255.522 79.28 253.986 79.928C252.45 80.576 250.698 80.9 248.73 80.9ZM261.842 80V55.988H267.674L278.906 70.676L276.71 75.428V55.988H283.262V80H278.222L266.954 65.924L268.394 62.648V80H261.842ZM297.036 80.54C294.708 80.54 292.644 80.144 290.844 79.352C289.044 78.536 287.628 77.216 286.596 75.392C285.564 73.544 285.048 71.084 285.048 68.012C285.048 65.012 285.564 62.588 286.596 60.74C287.628 58.868 289.044 57.512 290.844 56.672C292.644 55.808 294.696 55.376 297 55.376C298.608 55.376 300.168 55.544 301.68 55.88C303.192 56.192 304.644 56.624 306.036 57.176V63.584C304.452 62.72 303.036 62.048 301.788 61.568C300.564 61.064 299.28 60.812 297.936 60.812C296.832 60.812 295.86 61.016 295.02 61.424C294.204 61.808 293.568 62.516 293.112 63.548C292.656 64.58 292.428 66.056 292.428 67.976C292.428 69.848 292.668 71.312 293.148 72.368C293.628 73.4 294.252 74.132 295.02 74.564C295.812 74.972 296.652 75.176 297.54 75.176C298.068 75.176 298.536 75.14 298.944 75.068C299.376 74.996 299.712 74.876 299.952 74.708V71.576H296.748V66.176H307.152V77.66C305.592 78.572 303.948 79.28 302.22 79.784C300.516 80.288 298.788 80.54 297.036 80.54ZM310.028 80V55.988H317.264V74.564H326.876V80H310.028ZM326.708 80L335.564 55.988H343.556L351.62 80H344.24L336.86 56.888L340.676 56.564L333.368 80H326.708ZM332.216 75.788L333.44 70.748H343.988L344.672 75.788H332.216ZM361.121 80.54C359.897 80.54 358.757 80.492 357.701 80.396C356.645 80.324 355.661 80.18 354.749 79.964C353.837 79.748 352.985 79.448 352.193 79.064V72.368C353.465 73.352 354.809 74.06 356.225 74.492C357.665 74.924 358.913 75.14 359.969 75.14C360.737 75.14 361.361 75.02 361.841 74.78C362.345 74.516 362.597 74.012 362.597 73.268C362.597 72.788 362.333 72.404 361.805 72.116C361.277 71.804 360.557 71.516 359.645 71.252C358.733 70.988 357.701 70.664 356.549 70.28C355.901 70.064 355.265 69.788 354.641 69.452C354.041 69.116 353.501 68.696 353.021 68.192C352.541 67.664 352.157 67.04 351.869 66.32C351.581 65.576 351.437 64.688 351.437 63.656C351.437 62.528 351.641 61.46 352.049 60.452C352.481 59.444 353.105 58.568 353.921 57.824C354.761 57.056 355.817 56.456 357.089 56.024C358.361 55.592 359.837 55.376 361.517 55.376C362.525 55.376 363.425 55.436 364.217 55.556C365.033 55.652 365.801 55.82 366.521 56.06C367.265 56.276 367.997 56.564 368.717 56.924V63.764C368.189 63.284 367.553 62.828 366.809 62.396C366.089 61.964 365.333 61.604 364.541 61.316C363.773 61.004 363.029 60.824 362.309 60.776C361.757 60.728 361.205 60.752 360.653 60.848C360.125 60.944 359.681 61.148 359.321 61.46C358.985 61.748 358.817 62.18 358.817 62.756C358.817 63.284 359.009 63.704 359.393 64.016C359.777 64.304 360.305 64.556 360.977 64.772C361.673 64.964 362.441 65.18 363.281 65.42C364.313 65.708 365.237 66.032 366.053 66.392C366.893 66.752 367.601 67.196 368.177 67.724C368.777 68.252 369.233 68.9 369.545 69.668C369.857 70.412 370.013 71.312 370.013 72.368C370.013 73.976 369.629 75.404 368.861 76.652C368.117 77.876 367.073 78.836 365.729 79.532C364.409 80.204 362.873 80.54 361.121 80.54ZM380.415 80.54C379.191 80.54 378.051 80.492 376.995 80.396C375.939 80.324 374.955 80.18 374.043 79.964C373.131 79.748 372.279 79.448 371.487 79.064V72.368C372.759 73.352 374.103 74.06 375.519 74.492C376.959 74.924 378.207 75.14 379.263 75.14C380.031 75.14 380.655 75.02 381.135 74.78C381.639 74.516 381.891 74.012 381.891 73.268C381.891 72.788 381.627 72.404 381.099 72.116C380.571 71.804 379.851 71.516 378.939 71.252C378.027 70.988 376.995 70.664 375.843 70.28C375.195 70.064 374.559 69.788 373.935 69.452C373.335 69.116 372.795 68.696 372.315 68.192C371.835 67.664 371.451 67.04 371.163 66.32C370.875 65.576 370.731 64.688 370.731 63.656C370.731 62.528 370.935 61.46 371.343 60.452C371.775 59.444 372.399 58.568 373.215 57.824C374.055 57.056 375.111 56.456 376.383 56.024C377.655 55.592 379.131 55.376 380.811 55.376C381.819 55.376 382.719 55.436 383.511 55.556C384.327 55.652 385.095 55.82 385.815 56.06C386.559 56.276 387.291 56.564 388.011 56.924V63.764C387.483 63.284 386.847 62.828 386.103 62.396C385.383 61.964 384.627 61.604 383.835 61.316C383.067 61.004 382.323 60.824 381.603 60.776C381.051 60.728 380.499 60.752 379.947 60.848C379.419 60.944 378.975 61.148 378.615 61.46C378.279 61.748 378.111 62.18 378.111 62.756C378.111 63.284 378.303 63.704 378.687 64.016C379.071 64.304 379.599 64.556 380.271 64.772C380.967 64.964 381.735 65.18 382.575 65.42C383.607 65.708 384.531 66.032 385.347 66.392C386.187 66.752 386.895 67.196 387.471 67.724C388.071 68.252 388.527 68.9 388.839 69.668C389.151 70.412 389.307 71.312 389.307 72.368C389.307 73.976 388.923 75.404 388.155 76.652C387.411 77.876 386.367 78.836 385.023 79.532C383.703 80.204 382.167 80.54 380.415 80.54Z" fill="#262626"/>
<path d="M9.44894 90.5271C9.7483 89.6057 11.0517 89.6057 11.3511 90.5271L12.5104 94.0952C12.6443 94.5073 13.0283 94.7862 13.4615 94.7862H17.2133C18.182 94.7862 18.5848 96.0258 17.8011 96.5952L14.7658 98.8005C14.4153 99.0552 14.2687 99.5065 14.4025 99.9185L15.5619 103.487C15.8613 104.408 14.8068 105.174 14.0231 104.605L10.9878 102.4C10.6373 102.145 10.1627 102.145 9.81221 102.4L6.77693 104.605C5.99322 105.174 4.93874 104.408 5.23809 103.487L6.39746 99.9185C6.53134 99.5065 6.38468 99.0552 6.03419 98.8005L2.99891 96.5952C2.2152 96.0258 2.61797 94.7862 3.5867 94.7862H7.33851C7.77174 94.7862 8.15569 94.5073 8.28957 94.0952L9.44894 90.5271Z" fill="#FFA500"/>
<path d="M30.2489 90.527C30.5483 89.6057 31.8517 89.6057 32.151 90.527L33.3104 94.0952C33.4443 94.5072 33.8282 94.7861 34.2615 94.7861H38.0133C38.982 94.7861 39.3848 96.0258 38.6011 96.5952L35.5658 98.8004C35.2153 99.0551 35.0686 99.5064 35.2025 99.9185L36.3619 103.487C36.6613 104.408 35.6068 105.174 34.8231 104.605L31.7878 102.399C31.4373 102.145 30.9627 102.145 30.6122 102.399L27.5769 104.605C26.7932 105.174 25.7387 104.408 26.0381 103.487L27.1975 99.9185C27.3313 99.5064 27.1847 99.0551 26.8342 98.8004L23.7989 96.5952C23.0152 96.0258 23.418 94.7861 24.3867 94.7861H28.1385C28.5717 94.7861 28.9557 94.5072 29.0896 94.0952L30.2489 90.527Z" fill="#FFA500"/>
<path d="M51.0489 90.527C51.3483 89.6057 52.6517 89.6057 52.951 90.527L54.1104 94.0952C54.2443 94.5072 54.6282 94.7861 55.0615 94.7861H58.8133C59.782 94.7861 60.1848 96.0258 59.4011 96.5952L56.3658 98.8004C56.0153 99.0551 55.8686 99.5064 56.0025 99.9185L57.1619 103.487C57.4612 104.408 56.4068 105.174 55.623 104.605L52.5878 102.399C52.2373 102.145 51.7627 102.145 51.4122 102.399L48.3769 104.605C47.5932 105.174 46.5387 104.408 46.8381 103.487L47.9974 99.9185C48.1313 99.5064 47.9847 99.0551 47.6342 98.8004L44.5989 96.5952C43.8152 96.0258 44.2179 94.7861 45.1867 94.7861H48.9385C49.3717 94.7861 49.7557 94.5072 49.8895 94.0952L51.0489 90.527Z" fill="#FFA500"/>
<path d="M72.3248 90.6819C72.4745 90.2213 73.1263 90.2213 73.276 90.6819L74.4352 94.2493C74.636 94.8674 75.2121 95.2864 75.8619 95.2864H79.6129C80.0973 95.2864 80.2987 95.906 79.9069 96.1907L76.8717 98.3958C76.3462 98.7777 76.1262 99.4547 76.3268 100.073L77.486 103.641C77.6356 104.101 77.1092 104.485 76.7174 104.201L73.6813 101.994C73.1557 101.613 72.4441 101.613 71.9186 101.994L68.8834 104.201C68.4916 104.485 67.9642 104.102 68.1139 103.641L69.2731 100.073C69.4737 99.4546 69.2538 98.7777 68.7281 98.3958L65.693 96.1907C65.3011 95.906 65.5026 95.2864 65.9869 95.2864H69.7389C70.3886 95.2863 70.9639 94.8673 71.1647 94.2493L72.3248 90.6819Z" stroke="#FFA500"/>
<path d="M93.1248 90.6819C93.2745 90.2213 93.9263 90.2213 94.076 90.6819L95.2352 94.2493C95.436 94.8674 96.0121 95.2864 96.6619 95.2864H100.413C100.897 95.2864 101.099 95.906 100.707 96.1907L97.6717 98.3958C97.1462 98.7777 96.9262 99.4547 97.1268 100.073L98.2859 103.641C98.4356 104.101 97.9092 104.485 97.5174 104.201L94.4813 101.994C93.9557 101.613 93.2441 101.613 92.7186 101.994L89.6834 104.201C89.2916 104.485 88.7642 104.102 88.9139 103.641L90.0731 100.073C90.2737 99.4546 90.0538 98.7777 89.5281 98.3958L86.493 96.1907C86.1011 95.906 86.3026 95.2864 86.7869 95.2864H90.5389C91.1886 95.2863 91.7639 94.8673 91.9647 94.2493L93.1248 90.6819Z" stroke="#FFA500"/>
<path d="M115.536 105.856C114.949 105.365 114.448 104.757 114.032 104.032C113.616 103.317 113.296 102.533 113.072 101.68C112.848 100.827 112.736 99.9413 112.736 99.024C112.736 98.1067 112.848 97.2213 113.072 96.368C113.296 95.5147 113.616 94.7307 114.032 94.016C114.448 93.2907 114.949 92.6827 115.536 92.192L116.368 92.944C115.611 93.6053 115.024 94.4587 114.608 95.504C114.203 96.5493 114 97.7227 114 99.024C114 100.315 114.203 101.483 114.608 102.528C115.024 103.573 115.611 104.432 116.368 105.104L115.536 105.856ZM119.612 104V92.896H121.1V104H119.612ZM117.34 94.24V92.896H120.94V94.24H117.34ZM126.359 104.16C125.601 104.16 124.924 104.027 124.327 103.76C123.74 103.483 123.244 103.083 122.839 102.56L123.863 101.536C124.108 101.909 124.444 102.208 124.871 102.432C125.308 102.645 125.793 102.752 126.327 102.752C126.828 102.752 127.265 102.656 127.639 102.464C128.023 102.272 128.321 102.005 128.535 101.664C128.759 101.312 128.871 100.896 128.871 100.416C128.871 99.9253 128.764 99.5093 128.551 99.168C128.337 98.8267 128.049 98.5707 127.687 98.4C127.335 98.2187 126.945 98.128 126.519 98.128C126.081 98.128 125.681 98.1813 125.319 98.288C124.967 98.3947 124.631 98.576 124.311 98.832L124.327 97.872C124.508 97.648 124.716 97.4667 124.951 97.328C125.185 97.1893 125.452 97.0827 125.751 97.008C126.049 96.9333 126.396 96.896 126.791 96.896C127.559 96.896 128.209 97.056 128.743 97.376C129.276 97.696 129.681 98.128 129.959 98.672C130.247 99.216 130.391 99.824 130.391 100.496C130.391 101.2 130.215 101.829 129.863 102.384C129.521 102.939 129.047 103.376 128.439 103.696C127.831 104.005 127.137 104.16 126.359 104.16ZM124.311 98.832L123.495 98.016L123.991 92.896H125.367L124.807 98.16L124.311 98.832ZM124.295 94.24L123.991 92.896H129.831V94.24H124.295ZM135.447 104.16C134.711 104.16 134.06 104.021 133.495 103.744C132.94 103.467 132.508 103.083 132.199 102.592C131.89 102.101 131.735 101.547 131.735 100.928C131.735 100.427 131.831 99.968 132.023 99.552C132.215 99.136 132.498 98.784 132.871 98.496C133.244 98.1973 133.682 97.984 134.183 97.856L134.231 98.288C133.804 98.1707 133.442 97.984 133.143 97.728C132.844 97.4613 132.615 97.152 132.455 96.8C132.306 96.4373 132.231 96.0533 132.231 95.648C132.231 95.072 132.37 94.5653 132.647 94.128C132.924 93.6907 133.303 93.3493 133.783 93.104C134.274 92.848 134.828 92.72 135.447 92.72C136.076 92.72 136.631 92.848 137.111 93.104C137.591 93.3493 137.97 93.6907 138.247 94.128C138.524 94.5653 138.663 95.072 138.663 95.648C138.663 96.0533 138.583 96.4373 138.423 96.8C138.274 97.152 138.05 97.4613 137.751 97.728C137.463 97.984 137.106 98.1707 136.679 98.288L136.711 97.856C137.223 97.984 137.66 98.1973 138.023 98.496C138.396 98.784 138.679 99.136 138.871 99.552C139.074 99.968 139.175 100.427 139.175 100.928C139.175 101.547 139.02 102.101 138.711 102.592C138.402 103.083 137.964 103.467 137.399 103.744C136.844 104.021 136.194 104.16 135.447 104.16ZM135.447 102.8C135.895 102.8 136.284 102.715 136.615 102.544C136.956 102.363 137.223 102.117 137.415 101.808C137.618 101.499 137.719 101.141 137.719 100.736C137.719 100.341 137.618 99.9893 137.415 99.68C137.223 99.3707 136.956 99.1307 136.615 98.96C136.284 98.7787 135.895 98.688 135.447 98.688C135.01 98.688 134.62 98.7787 134.279 98.96C133.938 99.1307 133.666 99.3707 133.463 99.68C133.271 99.9893 133.175 100.341 133.175 100.736C133.175 101.141 133.271 101.499 133.463 101.808C133.666 102.117 133.938 102.363 134.279 102.544C134.62 102.715 135.01 102.8 135.447 102.8ZM135.447 97.52C135.98 97.52 136.418 97.3547 136.759 97.024C137.1 96.6933 137.271 96.2667 137.271 95.744C137.271 95.232 137.1 94.816 136.759 94.496C136.418 94.1653 135.98 94 135.447 94C134.924 94 134.492 94.1653 134.151 94.496C133.81 94.816 133.639 95.232 133.639 95.744C133.639 96.2667 133.81 96.6933 134.151 97.024C134.492 97.3547 134.924 97.52 135.447 97.52ZM142.008 104L145.352 99.44L145.896 99.152C145.768 99.3653 145.614 99.552 145.432 99.712C145.251 99.872 145.027 99.9947 144.76 100.08C144.504 100.165 144.19 100.208 143.816 100.208C143.176 100.208 142.584 100.053 142.04 99.744C141.507 99.4347 141.08 99.008 140.76 98.464C140.44 97.9093 140.28 97.2853 140.28 96.592C140.28 95.8773 140.456 95.232 140.808 94.656C141.16 94.0693 141.63 93.6053 142.216 93.264C142.803 92.912 143.454 92.736 144.168 92.736C144.894 92.736 145.55 92.9067 146.136 93.248C146.723 93.5893 147.187 94.048 147.528 94.624C147.87 95.1893 148.04 95.8293 148.04 96.544C148.04 97.5253 147.699 98.5013 147.016 99.472L143.752 104H142.008ZM144.168 99.024C144.616 99.024 145.016 98.9173 145.368 98.704C145.731 98.48 146.014 98.1867 146.216 97.824C146.43 97.4507 146.536 97.04 146.536 96.592C146.536 96.1227 146.43 95.7067 146.216 95.344C146.014 94.9707 145.731 94.6773 145.368 94.464C145.016 94.2507 144.616 94.144 144.168 94.144C143.72 94.144 143.315 94.2507 142.952 94.464C142.6 94.6773 142.318 94.9707 142.104 95.344C141.891 95.7067 141.784 96.1227 141.784 96.592C141.784 97.0507 141.891 97.4613 142.104 97.824C142.318 98.1867 142.606 98.48 142.968 98.704C143.331 98.9173 143.731 99.024 144.168 99.024ZM153.968 104.16C153.136 104.16 152.373 103.925 151.68 103.456C150.997 102.987 150.453 102.325 150.048 101.472C149.642 100.608 149.44 99.5947 149.44 98.432C149.44 97.2693 149.637 96.2613 150.032 95.408C150.437 94.5547 150.981 93.8987 151.664 93.44C152.346 92.9707 153.098 92.736 153.92 92.736C154.762 92.736 155.525 92.9707 156.208 93.44C156.89 93.8987 157.429 94.5547 157.824 95.408C158.229 96.2613 158.432 97.2747 158.432 98.448C158.432 99.6107 158.229 100.624 157.824 101.488C157.429 102.341 156.89 103.003 156.208 103.472C155.536 103.931 154.789 104.16 153.968 104.16ZM153.936 102.736C154.522 102.736 155.034 102.576 155.472 102.256C155.92 101.925 156.272 101.44 156.528 100.8C156.784 100.16 156.911 99.3707 156.911 98.432C156.911 97.4933 156.784 96.7093 156.528 96.08C156.272 95.44 155.92 94.96 155.472 94.64C155.024 94.3093 154.506 94.144 153.92 94.144C153.344 94.144 152.832 94.3093 152.384 94.64C151.936 94.96 151.584 95.44 151.328 96.08C151.082 96.7093 150.96 97.4933 150.96 98.432C150.96 99.3707 151.082 100.16 151.328 100.8C151.584 101.44 151.936 101.925 152.384 102.256C152.832 102.576 153.349 102.736 153.936 102.736ZM160.5 105.856L159.668 105.104C160.425 104.432 161.006 103.573 161.412 102.528C161.817 101.483 162.02 100.315 162.02 99.024C162.02 97.7227 161.817 96.5493 161.412 95.504C161.006 94.4587 160.425 93.6053 159.668 92.944L160.5 92.192C161.086 92.6827 161.588 93.2907 162.004 94.016C162.42 94.7307 162.74 95.5147 162.964 96.368C163.188 97.2213 163.299 98.1067 163.299 99.024C163.299 99.9413 163.188 100.827 162.964 101.68C162.74 102.533 162.42 103.317 162.004 104.032C161.588 104.757 161.086 105.365 160.5 105.856Z" fill="#5D5D5D"/>
</svg>
