<svg width="44" height="44" viewBox="0 0 44 44" fill="none" xmlns="http://www.w3.org/2000/svg">
<path d="M16 0.5H28C31.7854 0.5 34.5745 0.500713 36.7119 0.788086C38.8348 1.07354 40.2406 1.63315 41.3037 2.69629C42.3668 3.75943 42.9265 5.16519 43.2119 7.28809C43.4993 9.42554 43.5 12.2146 43.5 16V28C43.5 31.7854 43.4993 34.5745 43.2119 36.7119C42.9265 38.8348 42.3668 40.2406 41.3037 41.3037C40.2406 42.3668 38.8348 42.9265 36.7119 43.2119C34.5745 43.4993 31.7854 43.5 28 43.5H16C12.2146 43.5 9.42554 43.4993 7.28809 43.2119C5.16519 42.9265 3.75943 42.3668 2.69629 41.3037C1.63315 40.2406 1.07354 38.8348 0.788086 36.7119C0.500713 34.5745 0.5 31.7854 0.5 28V16C0.5 12.2146 0.500713 9.42554 0.788086 7.28809C1.07354 5.16519 1.63315 3.75943 2.69629 2.69629C3.75943 1.63315 5.16519 1.07354 7.28809 0.788086C9.42554 0.500713 12.2146 0.5 16 0.5Z" fill="white"/>
<path d="M16 0.5H28C31.7854 0.5 34.5745 0.500713 36.7119 0.788086C38.8348 1.07354 40.2406 1.63315 41.3037 2.69629C42.3668 3.75943 42.9265 5.16519 43.2119 7.28809C43.4993 9.42554 43.5 12.2146 43.5 16V28C43.5 31.7854 43.4993 34.5745 43.2119 36.7119C42.9265 38.8348 42.3668 40.2406 41.3037 41.3037C40.2406 42.3668 38.8348 42.9265 36.7119 43.2119C34.5745 43.4993 31.7854 43.5 28 43.5H16C12.2146 43.5 9.42554 43.4993 7.28809 43.2119C5.16519 42.9265 3.75943 42.3668 2.69629 41.3037C1.63315 40.2406 1.07354 38.8348 0.788086 36.7119C0.500713 34.5745 0.5 31.7854 0.5 28V16C0.5 12.2146 0.500713 9.42554 0.788086 7.28809C1.07354 5.16519 1.63315 3.75943 2.69629 2.69629C3.75943 1.63315 5.16519 1.07354 7.28809 0.788086C9.42554 0.500713 12.2146 0.5 16 0.5Z" stroke="#E7E7E7"/>
<path d="M13.7083 13.7083H15.375L17.5916 24.0583C17.673 24.4374 17.8839 24.7762 18.1881 25.0165C18.4923 25.2569 18.8707 25.3836 19.2583 25.375H27.4083C27.7876 25.3744 28.1554 25.2444 28.4508 25.0065C28.7463 24.7686 28.9518 24.4371 29.0333 24.0667L30.4083 17.875H16.2666M19.5 29.5C19.5 29.9602 19.1269 30.3333 18.6666 30.3333C18.2064 30.3333 17.8333 29.9602 17.8333 29.5C17.8333 29.0398 18.2064 28.6667 18.6666 28.6667C19.1269 28.6667 19.5 29.0398 19.5 29.5ZM28.6666 29.5C28.6666 29.9602 28.2936 30.3333 27.8333 30.3333C27.3731 30.3333 27 29.9602 27 29.5C27 29.0398 27.3731 28.6667 27.8333 28.6667C28.2936 28.6667 28.6666 29.0398 28.6666 29.5Z" stroke="#5D5D5D" stroke-linecap="round" stroke-linejoin="round"/>
</svg>
