<svg width="47" height="50" viewBox="0 0 47 50" fill="none" xmlns="http://www.w3.org/2000/svg">
<rect x="0.5" y="6.5" width="43" height="43" rx="7.5" fill="white"/>
<rect x="0.5" y="6.5" width="43" height="43" rx="7.5" stroke="#E7E7E7"/>
<path d="M25.6999 21.0833C27.9797 21.0833 29.8336 22.9404 29.8337 25.2415C29.8337 26.1788 29.6841 27.0437 29.4245 27.846L29.4235 27.849C28.801 29.8189 27.5243 31.4102 26.1423 32.598C24.758 33.7877 23.2958 34.5484 22.3552 34.8685L22.3503 34.8704C22.2788 34.8957 22.1514 34.9163 21.9997 34.9163C21.8483 34.9163 21.7216 34.8956 21.6501 34.8704L21.6442 34.8685L21.2682 34.7279C20.3395 34.3516 19.0693 33.6389 17.8581 32.598C16.476 31.4101 15.1994 29.819 14.5768 27.849L14.5759 27.846L14.4841 27.5423C14.2815 26.8264 14.1667 26.0617 14.1667 25.2415C14.1668 22.9404 16.0207 21.0833 18.3005 21.0833C19.6437 21.0835 20.8477 21.7369 21.5993 22.7415L21.9997 23.2767L22.4001 22.7415C23.1518 21.7368 24.3565 21.0834 25.6999 21.0833Z" stroke="#5D5D5D"/>
<rect x="31" width="16" height="16" rx="8" fill="#FF5757"/>
<path d="M38.6837 13.5V3.658H40.5597V13.5H38.6837ZM36.7517 5.31V3.658H40.4197V5.31H36.7517Z" fill="white"/>
</svg>
