<svg width="45" height="44" viewBox="0 0 45 44" fill="none" xmlns="http://www.w3.org/2000/svg">
<g clip-path="url(#clip0_5_80)">
<path d="M19.0631 0.545516C19.3005 0.432206 19.7335 0.248076 20.0407 0.134766C20.348 0.0356196 20.9485 -0.0210355 21.3675 0.00729204C21.982 0.0497834 22.5127 0.248076 24.0909 1.06958C25.1661 1.62196 26.3672 2.2735 27.4426 2.95336L26.8001 3.60489C26.451 3.97315 24.6076 5.97024 22.7221 8.05233C20.8228 10.1486 19.2447 11.8482 19.2028 11.8482C19.1609 11.8482 18.7699 11.6924 18.3369 11.5083C17.89 11.3241 17.0241 11.0125 16.4097 10.8143C15.7952 10.616 14.8874 10.3752 14.3846 10.276C13.8819 10.1769 13.0579 10.1344 12.5412 10.1627C12.0244 10.1911 11.5915 10.1911 11.5915 10.1486C11.5915 10.1061 11.9546 9.41204 12.3875 8.59056C12.8205 7.76904 13.5607 6.49431 14.0495 5.7578C14.5243 5.02127 15.3622 3.90233 15.879 3.27912C16.4097 2.65592 17.2476 1.83442 17.7504 1.452C18.2392 1.08374 18.8257 0.672989 19.0631 0.545516Z" fill="url(#paint0_linear_5_80)"/>
<path d="M19.0631 0.545516C19.3005 0.432206 19.7335 0.248076 20.0407 0.134766C20.348 0.0356196 20.9485 -0.0210355 21.3675 0.00729204C21.982 0.0497834 22.5127 0.248076 24.0909 1.06958C25.1661 1.62196 26.3672 2.2735 27.4426 2.95336L26.8001 3.60489C26.451 3.97315 24.6076 5.97024 22.7221 8.05233C20.8228 10.1486 19.2447 11.8482 19.2028 11.8482C19.1609 11.8482 18.7699 11.6924 18.3369 11.5083C17.89 11.3241 17.0241 11.0125 16.4097 10.8143C15.7952 10.616 14.8874 10.3752 14.3846 10.276C13.8819 10.1769 13.0579 10.1344 12.5412 10.1627C12.0244 10.1911 11.5915 10.1911 11.5915 10.1486C11.5915 10.1061 11.9546 9.41204 12.3875 8.59056C12.8205 7.76904 13.5607 6.49431 14.0495 5.7578C14.5243 5.02127 15.3622 3.90233 15.879 3.27912C16.4097 2.65592 17.2476 1.83442 17.7504 1.452C18.2392 1.08374 18.8257 0.672989 19.0631 0.545516Z" fill="url(#paint1_linear_5_80)"/>
<path d="M23.9511 8.84549C25.8086 6.87673 27.5823 4.96462 27.9173 4.5822C28.2526 4.21393 28.5459 3.91649 28.5739 3.91649C28.6018 3.91649 29.1743 4.28475 29.8306 4.72382C30.501 5.17707 31.8697 6.21102 32.8752 7.01837C33.8809 7.8257 35.5567 9.35538 36.5901 10.4177C37.6376 11.4799 39.048 13.1088 39.7325 14.0436C40.4308 14.9784 41.2826 16.2532 41.6317 16.8764C41.995 17.4996 42.5534 18.5477 42.8746 19.2134C43.1959 19.8791 43.7126 21.1538 43.992 22.0461C44.2853 22.9385 44.6343 24.284 44.7462 25.0205C44.8717 25.7571 44.9696 27.0317 44.9696 27.8534C44.9696 28.6749 44.8717 30.0061 44.7462 30.8276C44.6343 31.6491 44.3271 32.9523 44.0758 33.7311C43.8104 34.5103 43.3775 35.6292 43.0842 36.2099C42.7909 36.7906 42.3021 37.6546 41.9949 38.122C41.6876 38.5894 41.0451 39.3826 40.5843 39.8783C40.1096 40.374 39.3554 41.0539 38.8946 41.3797C38.4335 41.7197 37.5259 42.2437 36.8693 42.5553C36.213 42.867 35.3052 43.2211 34.8443 43.3344C34.3835 43.4617 33.378 43.6602 32.6098 43.7875C31.8418 43.9008 30.7106 44 30.096 44C29.4815 44 28.3503 43.9008 27.5823 43.7875C26.8143 43.6742 25.7109 43.4477 25.1382 43.2777C24.5656 43.1219 23.5881 42.7678 22.9736 42.4846C22.3591 42.2154 21.2558 41.5922 20.5296 41.0965C19.8034 40.6148 18.6861 39.6943 18.0576 39.0568C17.4152 38.4335 16.5633 37.4421 16.1583 36.8755C15.7533 36.3232 15.1947 35.4734 14.9154 35.006C14.65 34.5386 14.3428 34.0146 14.259 33.8304C14.1752 33.6605 14.8176 34.2411 15.6835 35.1193C16.5354 36.0117 17.7783 37.1023 18.4347 37.5697C19.0911 38.0228 20.2782 38.7453 21.0882 39.156C21.8982 39.5668 23.0574 40.0625 23.6719 40.2467C24.2864 40.4306 25.1661 40.6574 25.6269 40.7281C26.088 40.813 26.8701 40.884 27.3727 40.884C27.8756 40.884 28.6856 40.7847 29.1884 40.6574C29.691 40.5441 30.4452 40.275 30.8643 40.0767C31.353 39.8359 32.0234 39.2976 32.6938 38.632C33.2802 38.0371 33.9785 37.1447 34.2579 36.6349C34.5372 36.1249 34.9701 35.1335 35.2076 34.4394C35.445 33.7311 35.7102 32.5841 35.7942 31.8899C35.9059 30.9409 35.9059 30.2896 35.7801 29.3405C35.6963 28.6323 35.4868 27.6549 35.3193 27.1452C35.1656 26.6352 34.7746 25.7145 34.4673 25.0915C34.1601 24.4682 33.5876 23.4908 33.1964 22.9101C32.7914 22.3294 31.8139 21.1538 31.0039 20.304C30.1939 19.4542 28.9089 18.2361 28.1409 17.6129C27.3727 16.9897 25.9623 15.9415 24.9986 15.3042C24.0349 14.6668 22.6384 13.817 21.8982 13.4204C21.1441 13.0238 20.5435 12.6414 20.5715 12.5564C20.5854 12.4856 22.1077 10.8143 23.9511 8.84549Z" fill="url(#paint2_linear_5_80)"/>
<path d="M23.9511 8.84549C25.8086 6.87673 27.5823 4.96462 27.9173 4.5822C28.2526 4.21393 28.5459 3.91649 28.5739 3.91649C28.6018 3.91649 29.1743 4.28475 29.8306 4.72382C30.501 5.17707 31.8697 6.21102 32.8752 7.01837C33.8809 7.8257 35.5567 9.35538 36.5901 10.4177C37.6376 11.4799 39.048 13.1088 39.7325 14.0436C40.4308 14.9784 41.2826 16.2532 41.6317 16.8764C41.995 17.4996 42.5534 18.5477 42.8746 19.2134C43.1959 19.8791 43.7126 21.1538 43.992 22.0461C44.2853 22.9385 44.6343 24.284 44.7462 25.0205C44.8717 25.7571 44.9696 27.0317 44.9696 27.8534C44.9696 28.6749 44.8717 30.0061 44.7462 30.8276C44.6343 31.6491 44.3271 32.9523 44.0758 33.7311C43.8104 34.5103 43.3775 35.6292 43.0842 36.2099C42.7909 36.7906 42.3021 37.6546 41.9949 38.122C41.6876 38.5894 41.0451 39.3826 40.5843 39.8783C40.1096 40.374 39.3554 41.0539 38.8946 41.3797C38.4335 41.7197 37.5259 42.2437 36.8693 42.5553C36.213 42.867 35.3052 43.2211 34.8443 43.3344C34.3835 43.4617 33.378 43.6602 32.6098 43.7875C31.8418 43.9008 30.7106 44 30.096 44C29.4815 44 28.3503 43.9008 27.5823 43.7875C26.8143 43.6742 25.7109 43.4477 25.1382 43.2777C24.5656 43.1219 23.5881 42.7678 22.9736 42.4846C22.3591 42.2154 21.2558 41.5922 20.5296 41.0965C19.8034 40.6148 18.6861 39.6943 18.0576 39.0568C17.4152 38.4335 16.5633 37.4421 16.1583 36.8755C15.7533 36.3232 15.1947 35.4734 14.9154 35.006C14.65 34.5386 14.3428 34.0146 14.259 33.8304C14.1752 33.6605 14.8176 34.2411 15.6835 35.1193C16.5354 36.0117 17.7783 37.1023 18.4347 37.5697C19.0911 38.0228 20.2782 38.7453 21.0882 39.156C21.8982 39.5668 23.0574 40.0625 23.6719 40.2467C24.2864 40.4306 25.1661 40.6574 25.6269 40.7281C26.088 40.813 26.8701 40.884 27.3727 40.884C27.8756 40.884 28.6856 40.7847 29.1884 40.6574C29.691 40.5441 30.4452 40.275 30.8643 40.0767C31.353 39.8359 32.0234 39.2976 32.6938 38.632C33.2802 38.0371 33.9785 37.1447 34.2579 36.6349C34.5372 36.1249 34.9701 35.1335 35.2076 34.4394C35.445 33.7311 35.7102 32.5841 35.7942 31.8899C35.9059 30.9409 35.9059 30.2896 35.7801 29.3405C35.6963 28.6323 35.4868 27.6549 35.3193 27.1452C35.1656 26.6352 34.7746 25.7145 34.4673 25.0915C34.1601 24.4682 33.5876 23.4908 33.1964 22.9101C32.7914 22.3294 31.8139 21.1538 31.0039 20.304C30.1939 19.4542 28.9089 18.2361 28.1409 17.6129C27.3727 16.9897 25.9623 15.9415 24.9986 15.3042C24.0349 14.6668 22.6384 13.817 21.8982 13.4204C21.1441 13.0238 20.5435 12.6414 20.5715 12.5564C20.5854 12.4856 22.1077 10.8143 23.9511 8.84549Z" fill="url(#paint3_linear_5_80)"/>
<path d="M6.70352 23.3917C8.36545 20.5873 10.2089 17.4146 10.8094 16.3523C11.41 15.29 11.9407 14.4402 11.9965 14.4544C12.0384 14.4827 12.8345 15.7149 13.7562 17.2163C14.6779 18.7035 15.6695 20.3181 15.9768 20.7997C16.27 21.2955 17.6387 23.4766 19.0073 25.6579C20.3759 27.8391 22.1356 30.6294 22.9317 31.8476C23.7277 33.0798 24.3422 34.0853 24.3002 34.0853C24.2585 34.0853 24.1048 33.9579 23.9511 33.8021C23.7976 33.6321 23.0713 33.0939 22.3451 32.5982C21.6189 32.1024 20.5435 31.4651 19.9709 31.1817C19.3983 30.8843 18.1973 30.4028 17.3175 30.1194C16.4376 29.8222 15.1807 29.4964 14.5243 29.4112C13.7981 29.2979 12.639 29.2556 11.5217 29.3122C10.2927 29.3546 9.34304 29.4821 8.58891 29.6946C7.97442 29.8645 6.99681 30.1903 6.42422 30.4028C5.85162 30.6294 4.84608 31.1394 4.18971 31.5358C3.53331 31.9325 2.66744 32.5272 2.24847 32.853C1.82951 33.1788 1.14519 33.7454 0.740181 34.1136C0.335176 34.496 0 34.7651 0 34.7228C0 34.6802 0.823975 33.2638 1.84347 31.5641C2.84901 29.8788 5.04162 26.1961 6.70352 23.3917Z" fill="url(#paint4_linear_5_80)"/>
<path d="M6.70352 23.3917C8.36545 20.5873 10.2089 17.4146 10.8094 16.3523C11.41 15.29 11.9407 14.4402 11.9965 14.4544C12.0384 14.4827 12.8345 15.7149 13.7562 17.2163C14.6779 18.7035 15.6695 20.3181 15.9768 20.7997C16.27 21.2955 17.6387 23.4766 19.0073 25.6579C20.3759 27.8391 22.1356 30.6294 22.9317 31.8476C23.7277 33.0798 24.3422 34.0853 24.3002 34.0853C24.2585 34.0853 24.1048 33.9579 23.9511 33.8021C23.7976 33.6321 23.0713 33.0939 22.3451 32.5982C21.6189 32.1024 20.5435 31.4651 19.9709 31.1817C19.3983 30.8843 18.1973 30.4028 17.3175 30.1194C16.4376 29.8222 15.1807 29.4964 14.5243 29.4112C13.7981 29.2979 12.639 29.2556 11.5217 29.3122C10.2927 29.3546 9.34304 29.4821 8.58891 29.6946C7.97442 29.8645 6.99681 30.1903 6.42422 30.4028C5.85162 30.6294 4.84608 31.1394 4.18971 31.5358C3.53331 31.9325 2.66744 32.5272 2.24847 32.853C1.82951 33.1788 1.14519 33.7454 0.740181 34.1136C0.335176 34.496 0 34.7651 0 34.7228C0 34.6802 0.823975 33.2638 1.84347 31.5641C2.84901 29.8788 5.04162 26.1961 6.70352 23.3917Z" fill="url(#paint5_linear_5_80)"/>
</g>
<defs>
<linearGradient id="paint0_linear_5_80" x1="6.7035" y1="9.77301" x2="41.142" y2="40.5921" gradientUnits="userSpaceOnUse">
<stop stop-color="#263A91"/>
<stop offset="1" stop-color="#1B69B3"/>
</linearGradient>
<linearGradient id="paint1_linear_5_80" x1="6.7035" y1="9.77301" x2="41.142" y2="40.5921" gradientUnits="userSpaceOnUse">
<stop stop-color="#263A91"/>
<stop offset="1" stop-color="#1B69B3"/>
</linearGradient>
<linearGradient id="paint2_linear_5_80" x1="6.70355" y1="9.77301" x2="41.1421" y2="40.5921" gradientUnits="userSpaceOnUse">
<stop stop-color="#263A91"/>
<stop offset="1" stop-color="#1B69B3"/>
</linearGradient>
<linearGradient id="paint3_linear_5_80" x1="6.70355" y1="9.77301" x2="41.1421" y2="40.5921" gradientUnits="userSpaceOnUse">
<stop stop-color="#263A91"/>
<stop offset="1" stop-color="#1B69B3"/>
</linearGradient>
<linearGradient id="paint4_linear_5_80" x1="6.70352" y1="9.77301" x2="41.1421" y2="40.5921" gradientUnits="userSpaceOnUse">
<stop stop-color="#263A91"/>
<stop offset="1" stop-color="#1B69B3"/>
</linearGradient>
<linearGradient id="paint5_linear_5_80" x1="6.70352" y1="9.77301" x2="41.1421" y2="40.5921" gradientUnits="userSpaceOnUse">
<stop stop-color="#263A91"/>
<stop offset="1" stop-color="#1B69B3"/>
</linearGradient>
<clipPath id="clip0_5_80">
<rect width="45" height="44" fill="white"/>
</clipPath>
</defs>
</svg>
