<svg width="36" height="36" viewBox="0 0 36 36" fill="none" xmlns="http://www.w3.org/2000/svg">
<path d="M16 0.5H20C23.7854 0.5 26.5745 0.500713 28.7119 0.788086C30.8348 1.07354 32.2406 1.63315 33.3037 2.69629C34.3668 3.75943 34.9265 5.16519 35.2119 7.28809C35.4993 9.42554 35.5 12.2146 35.5 16V20C35.5 23.7854 35.4993 26.5745 35.2119 28.7119C34.9265 30.8348 34.3668 32.2406 33.3037 33.3037C32.2406 34.3668 30.8348 34.9265 28.7119 35.2119C26.5745 35.4993 23.7854 35.5 20 35.5H16C12.2146 35.5 9.42554 35.4993 7.28809 35.2119C5.16519 34.9265 3.75943 34.3668 2.69629 33.3037C1.63315 32.2406 1.07354 30.8348 0.788086 28.7119C0.500713 26.5745 0.5 23.7854 0.5 20V16C0.5 12.2146 0.500713 9.42554 0.788086 7.28809C1.07354 5.16519 1.63315 3.75943 2.69629 2.69629C3.75943 1.63315 5.16519 1.07354 7.28809 0.788086C9.42554 0.500713 12.2146 0.5 16 0.5Z" fill="white"/>
<path d="M16 0.5H20C23.7854 0.5 26.5745 0.500713 28.7119 0.788086C30.8348 1.07354 32.2406 1.63315 33.3037 2.69629C34.3668 3.75943 34.9265 5.16519 35.2119 7.28809C35.4993 9.42554 35.5 12.2146 35.5 16V20C35.5 23.7854 35.4993 26.5745 35.2119 28.7119C34.9265 30.8348 34.3668 32.2406 33.3037 33.3037C32.2406 34.3668 30.8348 34.9265 28.7119 35.2119C26.5745 35.4993 23.7854 35.5 20 35.5H16C12.2146 35.5 9.42554 35.4993 7.28809 35.2119C5.16519 34.9265 3.75943 34.3668 2.69629 33.3037C1.63315 32.2406 1.07354 30.8348 0.788086 28.7119C0.500713 26.5745 0.5 23.7854 0.5 20V16C0.5 12.2146 0.500713 9.42554 0.788086 7.28809C1.07354 5.16519 1.63315 3.75943 2.69629 2.69629C3.75943 1.63315 5.16519 1.07354 7.28809 0.788086C9.42554 0.500713 12.2146 0.5 16 0.5Z" stroke="#E7E7E7"/>
<path d="M10.5 18H25.5M10.5 23H25.5M10.5 13H25.5" stroke="#5D5D5D" stroke-linecap="round" stroke-linejoin="round"/>
</svg>
