<svg width="47" height="50" viewBox="0 0 47 50" fill="none" xmlns="http://www.w3.org/2000/svg">
<rect x="0.5" y="6.5" width="43" height="43" rx="7.5" fill="white"/>
<rect x="0.5" y="6.5" width="43" height="43" rx="7.5" stroke="#E7E7E7"/>
<path d="M20.5567 35.5C20.703 35.7534 20.9133 35.9637 21.1667 36.11C21.4201 36.2563 21.7075 36.3333 22 36.3333C22.2925 36.3333 22.5799 36.2563 22.8333 36.11C23.0867 35.9637 23.297 35.7534 23.4433 35.5M14.7183 30.7717C14.6095 30.891 14.5376 31.0394 14.5115 31.1988C14.4855 31.3582 14.5063 31.5217 14.5714 31.6695C14.6366 31.8173 14.7433 31.943 14.8785 32.0312C15.0138 32.1195 15.1718 32.1666 15.3333 32.1667H28.6667C28.8282 32.1667 28.9862 32.1199 29.1216 32.0318C29.2569 31.9437 29.3637 31.8181 29.4291 31.6704C29.4944 31.5227 29.5154 31.3592 29.4895 31.1998C29.4637 31.0404 29.392 30.892 29.2833 30.7725C28.175 29.63 27 28.4158 27 24.6667C27 23.3406 26.4732 22.0688 25.5355 21.1311C24.5979 20.1935 23.3261 19.6667 22 19.6667C20.6739 19.6667 19.4021 20.1935 18.4645 21.1311C17.5268 22.0688 17 23.3406 17 24.6667C17 28.4158 15.8242 29.63 14.7183 30.7717Z" stroke="#5D5D5D" stroke-linecap="round" stroke-linejoin="round"/>
<rect x="31" width="16" height="16" rx="8" fill="#FF5757"/>
<path d="M38.6837 13.5V3.658H40.5597V13.5H38.6837ZM36.7517 5.31V3.658H40.4197V5.31H36.7517Z" fill="white"/>
</svg>
