<svg width="40" height="44" viewBox="0 0 40 44" fill="none" xmlns="http://www.w3.org/2000/svg">
<path d="M16 0.5H24C27.7854 0.5 30.5745 0.500713 32.7119 0.788086C34.8348 1.07354 36.2406 1.63315 37.3037 2.69629C38.3668 3.75943 38.9265 5.16519 39.2119 7.28809C39.4993 9.42554 39.5 12.2146 39.5 16V28C39.5 31.7854 39.4993 34.5745 39.2119 36.7119C38.9265 38.8348 38.3668 40.2406 37.3037 41.3037C36.2406 42.3668 34.8348 42.9265 32.7119 43.2119C30.5745 43.4993 27.7854 43.5 24 43.5H16C12.2146 43.5 9.42554 43.4993 7.28809 43.2119C5.16519 42.9265 3.75943 42.3668 2.69629 41.3037C1.63315 40.2406 1.07354 38.8348 0.788086 36.7119C0.500713 34.5745 0.5 31.7854 0.5 28V16C0.5 12.2146 0.500713 9.42554 0.788086 7.28809C1.07354 5.16519 1.63315 3.75943 2.69629 2.69629C3.75943 1.63315 5.16519 1.07354 7.28809 0.788086C9.42554 0.500713 12.2146 0.5 16 0.5Z" fill="white"/>
<path d="M16 0.5H24C27.7854 0.5 30.5745 0.500713 32.7119 0.788086C34.8348 1.07354 36.2406 1.63315 37.3037 2.69629C38.3668 3.75943 38.9265 5.16519 39.2119 7.28809C39.4993 9.42554 39.5 12.2146 39.5 16V28C39.5 31.7854 39.4993 34.5745 39.2119 36.7119C38.9265 38.8348 38.3668 40.2406 37.3037 41.3037C36.2406 42.3668 34.8348 42.9265 32.7119 43.2119C30.5745 43.4993 27.7854 43.5 24 43.5H16C12.2146 43.5 9.42554 43.4993 7.28809 43.2119C5.16519 42.9265 3.75943 42.3668 2.69629 41.3037C1.63315 40.2406 1.07354 38.8348 0.788086 36.7119C0.500713 34.5745 0.5 31.7854 0.5 28V16C0.5 12.2146 0.500713 9.42554 0.788086 7.28809C1.07354 5.16519 1.63315 3.75943 2.69629 2.69629C3.75943 1.63315 5.16519 1.07354 7.28809 0.788086C9.42554 0.500713 12.2146 0.5 16 0.5Z" stroke="#E7E7E7"/>
<path d="M18.3 31H13C12.4696 31 11.9609 30.7893 11.5858 30.4142C11.2107 30.0391 11 29.5304 11 29V15C11 14.4696 11.2107 13.9609 11.5858 13.5858C11.9609 13.2107 12.4696 13 13 13H27C27.5304 13 28.0391 13.2107 28.4142 13.5858C28.7893 13.9609 29 14.4696 29 15V25L25.9 21.9C25.5237 21.5312 25.017 21.3258 24.4901 21.3284C23.9632 21.331 23.4586 21.5415 23.086 21.914L14 31M28 32L26.5533 30.5533M19 19C19 20.1046 18.1046 21 17 21C15.8954 21 15 20.1046 15 19C15 17.8954 15.8954 17 17 17C18.1046 17 19 17.8954 19 19ZM27.3333 28.6667C27.3333 30.1394 26.1394 31.3333 24.6667 31.3333C23.1939 31.3333 22 30.1394 22 28.6667C22 27.1939 23.1939 26 24.6667 26C26.1394 26 27.3333 27.1939 27.3333 28.6667Z" stroke="#5D5D5D" stroke-linecap="round" stroke-linejoin="round"/>
</svg>
