<svg width="36" height="36" viewBox="0 0 36 36" fill="none" xmlns="http://www.w3.org/2000/svg">
<rect x="0.5" y="0.5" width="35" height="35" rx="7.5" fill="white"/>
<rect x="0.5" y="0.5" width="35" height="35" rx="7.5" stroke="#E7E7E7"/>
<path d="M14.8871 19.3784L21.122 23.0116M21.1129 12.9883L14.8871 16.6216M26.2159 11.6099C26.2159 13.1224 24.9897 14.3485 23.4772 14.3485C21.9647 14.3485 20.7386 13.1224 20.7386 11.6099C20.7386 10.0974 21.9647 8.87128 23.4772 8.87128C24.9897 8.87128 26.2159 10.0974 26.2159 11.6099ZM15.2614 18C15.2614 19.5125 14.0353 20.7386 12.5228 20.7386C11.0103 20.7386 9.78418 19.5125 9.78418 18C9.78418 16.4875 11.0103 15.2614 12.5228 15.2614C14.0353 15.2614 15.2614 16.4875 15.2614 18ZM26.2159 24.3901C26.2159 25.9026 24.9897 27.1287 23.4772 27.1287C21.9647 27.1287 20.7386 25.9026 20.7386 24.3901C20.7386 22.8776 21.9647 21.6515 23.4772 21.6515C24.9897 21.6515 26.2159 22.8776 26.2159 24.3901Z" stroke="#5D5D5D" stroke-linecap="round" stroke-linejoin="round"/>
</svg>
