<svg width="40" height="40" viewBox="0 0 40 40" fill="none" xmlns="http://www.w3.org/2000/svg">
<rect x="0.5" y="0.5" width="39" height="39" rx="7.5" fill="white"/>
<rect x="0.5" y="0.5" width="39" height="39" rx="7.5" stroke="#E7E7E7"/>
<path d="M12.75 15.8333L20 20M20 20L27.25 15.8333M20 20V28.3333M27.5 16.6667C27.4997 16.3744 27.4225 16.0873 27.2763 15.8343C27.13 15.5813 26.9198 15.3711 26.6667 15.225L20.8333 11.8917C20.58 11.7454 20.2926 11.6684 20 11.6684C19.7074 11.6684 19.42 11.7454 19.1667 11.8917L13.3333 15.225C13.0802 15.3711 12.87 15.5813 12.7237 15.8343C12.5775 16.0873 12.5003 16.3744 12.5 16.6667V23.3333C12.5003 23.6256 12.5775 23.9126 12.7237 24.1657C12.87 24.4187 13.0802 24.6289 13.3333 24.775L19.1667 28.1083C19.42 28.2546 19.7074 28.3316 20 28.3316C20.2926 28.3316 20.58 28.2546 20.8333 28.1083L26.6667 24.775C26.9198 24.6289 27.13 24.4187 27.2763 24.1657C27.4225 23.9126 27.4997 23.6256 27.5 23.3333V16.6667Z" stroke="#5D5D5D" stroke-linecap="round" stroke-linejoin="round"/>
</svg>
