<svg width="36" height="36" viewBox="0 0 36 36" fill="none" xmlns="http://www.w3.org/2000/svg">
<rect x="0.5" y="0.5" width="35" height="35" rx="7.5" fill="white"/>
<rect x="0.5" y="0.5" width="35" height="35" rx="7.5" stroke="#E7E7E7"/>
<path d="M16.3333 20.5C16.3333 22.341 14.8409 23.8334 13 23.8334C11.159 23.8334 9.66663 22.341 9.66663 20.5C9.66663 18.6591 11.159 17.1667 13 17.1667C14.8409 17.1667 16.3333 18.6591 16.3333 20.5ZM16.3333 20.5C16.3333 20.058 16.5089 19.6341 16.8214 19.3215C17.134 19.0089 17.5579 18.8334 18 18.8334C18.442 18.8334 18.8659 19.0089 19.1785 19.3215C19.491 19.6341 19.6666 20.058 19.6666 20.5M19.6666 20.5C19.6666 22.341 21.159 23.8334 23 23.8334C24.8409 23.8334 26.3333 22.341 26.3333 20.5C26.3333 18.6591 24.8409 17.1667 23 17.1667C21.159 17.1667 19.6666 18.6591 19.6666 20.5ZM10.0833 18.8334L12.1666 13.8334C12.75 12.75 13.3333 12.1667 14.6666 12.1667M25.9166 18.8334L23.8333 13.8334C23.25 12.75 22.5833 12.1667 21.3333 12.1667" stroke="#5D5D5D" stroke-linecap="round" stroke-linejoin="round"/>
</svg>
