<svg width="40" height="44" viewBox="0 0 40 44" fill="none" xmlns="http://www.w3.org/2000/svg">
<path d="M16 0.5H24C27.7854 0.5 30.5745 0.500713 32.7119 0.788086C34.8348 1.07354 36.2406 1.63315 37.3037 2.69629C38.3668 3.75943 38.9265 5.16519 39.2119 7.28809C39.4993 9.42554 39.5 12.2146 39.5 16V28C39.5 31.7854 39.4993 34.5745 39.2119 36.7119C38.9265 38.8348 38.3668 40.2406 37.3037 41.3037C36.2406 42.3668 34.8348 42.9265 32.7119 43.2119C30.5745 43.4993 27.7854 43.5 24 43.5H16C12.2146 43.5 9.42554 43.4993 7.28809 43.2119C5.16519 42.9265 3.75943 42.3668 2.69629 41.3037C1.63315 40.2406 1.07354 38.8348 0.788086 36.7119C0.500713 34.5745 0.5 31.7854 0.5 28V16C0.5 12.2146 0.500713 9.42554 0.788086 7.28809C1.07354 5.16519 1.63315 3.75943 2.69629 2.69629C3.75943 1.63315 5.16519 1.07354 7.28809 0.788086C9.42554 0.500713 12.2146 0.5 16 0.5Z" fill="white"/>
<path d="M16 0.5H24C27.7854 0.5 30.5745 0.500713 32.7119 0.788086C34.8348 1.07354 36.2406 1.63315 37.3037 2.69629C38.3668 3.75943 38.9265 5.16519 39.2119 7.28809C39.4993 9.42554 39.5 12.2146 39.5 16V28C39.5 31.7854 39.4993 34.5745 39.2119 36.7119C38.9265 38.8348 38.3668 40.2406 37.3037 41.3037C36.2406 42.3668 34.8348 42.9265 32.7119 43.2119C30.5745 43.4993 27.7854 43.5 24 43.5H16C12.2146 43.5 9.42554 43.4993 7.28809 43.2119C5.16519 42.9265 3.75943 42.3668 2.69629 41.3037C1.63315 40.2406 1.07354 38.8348 0.788086 36.7119C0.500713 34.5745 0.5 31.7854 0.5 28V16C0.5 12.2146 0.500713 9.42554 0.788086 7.28809C1.07354 5.16519 1.63315 3.75943 2.69629 2.69629C3.75943 1.63315 5.16519 1.07354 7.28809 0.788086C9.42554 0.500713 12.2146 0.5 16 0.5Z" stroke="#E7E7E7"/>
<path d="M20 29V32M20 29C21.8565 29 23.637 28.2625 24.9497 26.9497C26.2625 25.637 27 23.8565 27 22V20M20 29C18.1435 29 16.363 28.2625 15.0503 26.9497C13.7375 25.637 13 23.8565 13 22V20M20 12C21.6569 12 23 13.3431 23 15V22C23 23.6569 21.6569 25 20 25C18.3431 25 17 23.6569 17 22V15C17 13.3431 18.3431 12 20 12Z" stroke="#5D5D5D" stroke-linecap="round" stroke-linejoin="round"/>
</svg>
